<svg width="356" height="513" viewBox="0 0 356 513" fill="none" xmlns="http://www.w3.org/2000/svg">
<g clip-path="url(#clip0_2_163)">
<path d="M322.8 513H57.56C61.27 448.02 105.88 361.3 115.85 342.64C117.11 340.28 117.82 339.01 117.82 339.01C117.82 339.01 117.83 339.01 117.83 339C119.36 338.12 120.9 337.27 122.44 336.46C183.38 304.14 247.02 324.1 264.54 330.72C267.59 331.87 269.24 332.62 269.24 332.62C269.99 333.82 270.73 335.01 271.46 336.2C321.08 416.87 332.98 473.92 322.8 513Z" fill="#EF962B"/>
<path d="M328.58 463.22C323.28 426.75 305.25 383.32 274.97 334.09C274.24 332.9 273.5 331.71 272.76 330.51C272.75 330.49 272.73 330.47 272.72 330.45C272.29 329.76 271.67 329.21 270.93 328.88C270.69 328.77 270.08 328.5 269.1 328.09C256.61 322.9 185.78 296.5 117.85 334.27C117.15 334.65 116.46 335.05 115.76 335.45C115.11 335.82 114.58 336.36 114.22 337.01C114.19 337.06 114.16 337.11 114.13 337.18C113.82 337.72 113.14 338.96 112.15 340.81C101.74 360.21 57.06 446.91 53.42 513H61.68C65.46 449.03 109.97 362.43 119.59 344.38C120.13 343.36 120.56 342.57 120.87 342C121.4 341.7 121.92 341.41 122.45 341.12C124.07 340.23 125.68 339.39 127.3 338.58C182.06 311.16 239.09 326.25 259.6 333.34C261.68 334.06 263.38 334.69 264.66 335.19C264.66 335.19 264.67 335.2 264.67 335.19C265.39 335.48 265.98 335.71 266.43 335.9C266.91 336.68 267.39 337.45 267.86 338.23C312.81 411.26 329.93 470.8 318.5 513H327.04C330.72 498.2 331.24 481.57 328.58 463.22Z" fill="black"/>
<path d="M322.75 173.08C331.15 148.91 341.69 106.89 333.02 56.77C329.98 39.2 325.15 23.9 319.98 11.11C264.63 44.58 248.2 111.59 248.2 111.59C224.07 105.11 200.91 105.36 187.39 105.51C173.45 105.66 139.41 106.06 107.37 119.92C107.48 119.54 107.54 119.32 107.54 119.32C107.54 119.32 91.13 52.3 35.78 18.84C35.78 18.84 1.93002 86.6 33.02 180.8C35.94 189.65 38.97 196.3 42.07 201.07C39.09 215.58 37.24 236.14 43.88 258.44C61.71 318.31 131.43 359.27 197.71 354.81C250.22 351.27 312.71 318.4 329.65 258.44C340.27 220.85 328.78 187.46 322.75 173.08Z" fill="#EF962B"/>
<path d="M133.28 235.19C144.132 235.19 152.93 226.392 152.93 215.54C152.93 204.688 144.132 195.89 133.28 195.89C122.428 195.89 113.63 204.688 113.63 215.54C113.63 226.392 122.428 235.19 133.28 235.19Z" fill="#1C1505"/>
<path d="M112.93 187.77C113.64 184.42 115.6 181.56 118.29 179.36C120.98 177.15 124.47 175.77 128.05 175.42C131.62 175.13 135.16 175.84 138.18 177.31C138.97 177.61 139.63 178.13 140.33 178.57C141.01 179.03 141.68 179.51 142.32 180.02C143.5 181.16 144.61 182.36 145.5 183.76C145.96 184.48 145.75 185.43 145.03 185.89C144.76 186.06 144.47 186.14 144.17 186.13H144C142.36 186.1 140.93 185.87 139.57 185.6C138.17 185.49 136.88 185.19 135.63 185.02C134.37 184.91 133.18 184.62 132.01 184.6C130.84 184.41 129.73 184.48 128.59 184.38C126.35 184.44 124.15 184.76 121.79 185.45C119.44 186.13 116.96 187.26 114.32 188.66L114.19 188.73C113.76 188.96 113.23 188.79 113.01 188.37C112.91 188.18 112.89 187.97 112.93 187.77Z" fill="#1C1505"/>
<path d="M142.01 211.86C145.064 211.86 147.54 209.384 147.54 206.33C147.54 203.276 145.064 200.8 142.01 200.8C138.956 200.8 136.48 203.276 136.48 206.33C136.48 209.384 138.956 211.86 142.01 211.86Z" fill="white"/>
<path d="M130.52 220.23C132.105 220.23 133.39 218.945 133.39 217.36C133.39 215.775 132.105 214.49 130.52 214.49C128.935 214.49 127.65 215.775 127.65 217.36C127.65 218.945 128.935 220.23 130.52 220.23Z" fill="white"/>
<path d="M237.66 236.25C248.512 236.25 257.31 227.452 257.31 216.6C257.31 205.748 248.512 196.95 237.66 196.95C226.808 196.95 218.01 205.748 218.01 216.6C218.01 227.452 226.808 236.25 237.66 236.25Z" fill="#1C1505"/>
<path d="M257.26 187.77C256.55 184.42 254.59 181.56 251.9 179.36C249.21 177.15 245.72 175.77 242.14 175.42C238.57 175.13 235.03 175.84 232.01 177.31C231.22 177.61 230.56 178.13 229.86 178.57C229.18 179.03 228.51 179.51 227.87 180.02C226.69 181.16 225.58 182.36 224.69 183.76C224.23 184.48 224.44 185.43 225.16 185.89C225.43 186.06 225.72 186.14 226.02 186.13H226.19C227.83 186.1 229.26 185.87 230.62 185.6C232.02 185.49 233.31 185.19 234.56 185.02C235.82 184.91 237.01 184.62 238.18 184.6C239.35 184.41 240.46 184.48 241.6 184.38C243.84 184.44 246.04 184.76 248.4 185.45C250.75 186.13 253.23 187.26 255.87 188.66L256 188.73C256.43 188.96 256.96 188.79 257.18 188.37C257.27 188.18 257.3 187.97 257.26 187.77Z" fill="#1C1505"/>
<path d="M246.39 212.92C249.444 212.92 251.92 210.444 251.92 207.39C251.92 204.336 249.444 201.86 246.39 201.86C243.336 201.86 240.86 204.336 240.86 207.39C240.86 210.444 243.336 212.92 246.39 212.92Z" fill="white"/>
<path d="M234.9 221.29C236.485 221.29 237.77 220.005 237.77 218.42C237.77 216.835 236.485 215.55 234.9 215.55C233.315 215.55 232.03 216.835 232.03 218.42C232.03 220.005 233.315 221.29 234.9 221.29Z" fill="white"/>
<path d="M183.97 262.56L173.67 248.83C173.67 248.83 181.39 240.25 196.84 248.83L183.97 262.56Z" fill="#FF99CC"/>
<path d="M200.09 248.33C199.94 247.33 199.33 246.45 198.44 245.96C180.91 236.22 171.62 246.21 171.23 246.64C170.17 247.8 170.1 249.55 171.04 250.81L180.68 263.66L181.34 264.54C181.92 265.32 182.82 265.8 183.79 265.85H183.97C184.88 265.85 185.75 265.47 186.37 264.82L187.26 263.87L199.24 251.09C199.93 250.35 200.25 249.33 200.09 248.33ZM178.32 249.54C180.7 248.37 185.01 247.35 191.37 249.86L184.25 257.45L178.32 249.54Z" fill="#1D1D1B"/>
<path d="M202.61 294.45C189.91 294.45 181.89 287.42 181.77 287.31C181.08 286.69 180.68 285.8 180.68 284.87V262.56C180.68 260.74 182.15 259.27 183.97 259.27C185.79 259.27 187.26 260.74 187.26 262.56V283.27C191.19 286.06 205.28 293.89 224.49 279.65C225.95 278.56 228.01 278.87 229.09 280.33C230.17 281.79 229.87 283.85 228.41 284.93C218.68 292.15 209.88 294.45 202.61 294.45Z" fill="#1D1D1B"/>
<path d="M161.38 298.7C154.9 298.7 147.57 296.45 139.89 289.95C138.5 288.78 138.33 286.7 139.5 285.31C140.67 283.92 142.75 283.75 144.14 284.92C164.27 301.94 180.8 283.49 181.5 282.69C182.7 281.32 184.77 281.18 186.14 282.38C187.51 283.58 187.65 285.65 186.45 287.02C186.3 287.2 176.01 298.7 161.38 298.7Z" fill="#1D1D1B"/>
<path d="M38.9 20.79C38.9 20.79 78.86 118.78 42.06 201.07C42.06 201.07 -7.9 101.27 38.9 20.79Z" fill="#C67926"/>
<path d="M319.91 9.37997C313.64 23.88 306.93 44.02 304.53 68.66C299.86 116.56 314.1 154.39 322.75 173.08C327.98 161.04 332.89 146.51 335.88 129.7C345.43 76.02 329.69 31.44 319.91 9.37997Z" fill="#C67926"/>
<path d="M337.08 56.07C334.34 40.25 329.87 24.61 323.8 9.56999C323.35 8.44999 322.43 7.58999 321.29 7.20999C320.14 6.82999 318.89 6.96999 317.86 7.58999C270.12 36.46 250.45 90.14 245.45 106.64C222.2 101.02 200.56 101.26 187.35 101.4C173.44 101.55 141.77 101.9 110.4 114.22C105.82 98.82 86.75 44.86 37.9 15.32C36.92 14.73 35.73 14.57 34.63 14.89C33.53 15.21 32.61 15.97 32.1 17C30.69 19.83 -2.14999 87.37 29.12 182.09C31.78 190.17 34.67 196.81 37.72 201.87C33.8 222.1 34.55 241.52 39.94 259.62C48.74 289.18 70.24 315.69 100.47 334.26C104.28 336.6 108.18 338.79 112.15 340.81C113.38 341.44 114.61 342.05 115.85 342.64C117.09 343.24 118.33 343.82 119.59 344.38C141.19 354.13 164.57 359.26 187.65 359.26C191.1 359.26 194.55 359.14 197.97 358.91C220.59 357.39 245.44 350.53 267.86 338.23C269.07 337.57 270.27 336.9 271.46 336.2C272.64 335.52 273.81 334.82 274.97 334.09C301.79 317.56 324.21 292.79 333.6 259.56C343.3 225.22 335.62 193.75 327.15 172.94C340.23 134.53 343.66 94.15 337.08 56.07ZM269.1 328.09C267.59 329 266.07 329.87 264.54 330.72C262.91 331.63 261.26 332.5 259.6 333.34C239.45 343.6 217.51 349.35 197.42 350.71C194.21 350.92 191.01 351.03 187.8 351.03C166.96 351.03 146.25 346.54 127.3 338.58C125.66 337.91 124.04 337.2 122.44 336.46C120.89 335.75 119.36 335.02 117.85 334.27C84.23 317.58 57.5 289.79 47.81 257.27C42.67 240 42.09 221.37 46.09 201.9C46.31 200.85 46.1 199.75 45.51 198.84C45.02 198.08 44.54 197.27 44.06 196.41C41.58 192.04 39.19 186.37 36.92 179.51C11.08 101.19 31.18 40.89 37.64 24.87C38.9 25.7 40.13 26.54 41.34 27.4C85.18 58.53 101.18 111.62 103.32 119.36C103.13 120.71 103.63 122.09 104.68 123.01C105.87 124.06 107.56 124.32 109.02 123.69C140.35 110.14 173.35 109.77 187.45 109.62C200.96 109.47 223.57 109.22 247.15 115.56C248.39 115.89 249.7 115.63 250.72 114.85C251.47 114.28 251.99 113.46 252.21 112.56C252.49 111.48 267.89 51.49 316.26 18.41C316.83 18.02 317.4 17.63 317.98 17.25C322.93 30.32 326.62 43.83 328.98 57.47C335.17 93.3 332.16 131.26 320.28 167.53C319.83 168.94 319.35 170.33 318.87 171.73C318.54 172.69 318.57 173.74 318.96 174.67C327.15 194.24 334.97 224.46 325.68 257.33C316.72 289.03 295.01 312.55 269.1 328.09Z" fill="black"/>
</g>
<defs>
<clipPath id="clip0_2_163">
<rect width="356" height="513" fill="white"/>
</clipPath>
</defs>
</svg>
