<svg width="307" height="548" viewBox="0 0 307 548" fill="none" xmlns="http://www.w3.org/2000/svg">
<path d="M286.34 548H17.51C17.45 526.43 22.43 485.82 34.07 396.27C36.97 373.9 40.48 347.09 44.49 316.69C44.9 313.55 45.32 310.38 45.75 307.17V307.14C47.75 306.54 49.81 305.93 51.92 305.33C71.22 299.83 95.14 294.53 122.85 291.67C124.22 291.52 125.6 291.39 126.99 291.26C128.37 291.13 129.75 291.01 131.15 290.89C139.19 290.22 147.52 289.77 156.13 289.58C160.5 289.48 164.79 289.45 169.02 289.48C170.42 289.5 171.82 289.52 173.2 289.55C174.61 289.57 176 289.6 177.39 289.65C205.99 290.47 230.95 294.17 251.26 298.48C253.41 298.93 255.51 299.39 257.55 299.86V299.87C257.92 303.06 258.33 306.6 258.78 310.45C260.08 321.57 261.71 335.33 263.63 351.01C279.66 482.47 288.04 525.72 286.34 548Z" fill="#FCD200"/>
<path d="M283.97 460.83C280.21 432.59 275.53 397.45 269.77 350.25C267.31 330.15 265.33 313.21 263.9 300.94C263.83 300.33 263.76 299.73 263.69 299.14L263.19 294.79L260.26 294.12L258.92 293.82C257.3 293.45 255.68 293.09 254.06 292.74C229.22 287.38 203.92 284.29 178.56 283.49C177.16 283.45 175.77 283.41 174.38 283.38C172.99 283.35 171.59 283.33 170.2 283.31C165.46 283.25 160.72 283.28 155.98 283.38C147.24 283.57 138.52 284.04 129.82 284.78C128.44 284.9 127.05 285.03 125.66 285.16C124.29 285.29 122.91 285.43 121.53 285.58C96.93 288.16 72.57 292.91 48.74 299.8C47.14 300.26 45.54 300.73 43.95 301.21L42.64 301.61L40.12 302.37L39.6 306.33C39.51 307.02 39.42 307.7 39.32 308.38C34.89 341.89 31.06 371.27 27.91 395.47C16.34 484.55 11.3 525.72 11.27 548H23.69C23.61 527.54 28.43 487.65 40.2 397.07C42.91 376.3 46.12 351.7 49.78 323.94C50.16 321.06 50.54 318.14 50.93 315.19C51.07 314.11 51.22 313.03 51.36 311.94C52.73 311.54 54.1 311.15 55.47 310.77C78.01 304.46 101.01 300.11 124.23 297.74C125.62 297.6 127 297.47 128.39 297.35C129.78 297.22 131.17 297.1 132.56 296.99C140.44 296.35 148.34 295.94 156.26 295.76C160.08 295.67 163.9 295.64 167.72 295.68C169.12 295.67 170.52 295.69 171.92 295.72C173.32 295.74 174.72 295.76 176.12 295.81C200.28 296.44 224.39 299.23 248.09 304.14C249.36 304.4 250.63 304.66 251.9 304.94C252.06 306.28 252.22 307.66 252.39 309.1C252.73 312.07 253.1 315.24 253.5 318.6C254.64 328.22 255.97 339.38 257.48 351.75C263.25 399.02 267.94 434.2 271.7 462.47C278.31 512.15 281.28 534.46 280.07 548H292.53C293.55 532.79 290.41 509.17 283.97 460.83Z" fill="black"/>
<path d="M111.87 360.36C111.87 360.36 65.76 448.81 92.75 480.33C119.74 511.85 161.77 435.98 149.65 366.41C137.53 296.85 111.87 360.36 111.87 360.36Z" fill="#F93500"/>
<path d="M156.81 372.41C156.55 370.36 156.26 368.3 155.91 366.26C155.86 365.96 155.81 365.67 155.76 365.37C155.58 364.31 155.39 363.28 155.2 362.27V362.26C155.05 361.52 154.91 360.81 154.77 360.1C154.7 359.77 154.63 359.44 154.57 359.12C154.22 357.49 153.87 355.93 153.51 354.43C153.07 352.64 152.61 350.94 152.14 349.34C152.11 349.23 152.08 349.12 152.04 349.01C149.18 339.46 145.64 333.31 141.21 330.18C139.68 329.09 138.05 328.36 136.3 327.99C135.81 327.87 135.3 327.79 134.78 327.73C133.82 327.63 132.88 327.64 131.95 327.75C121.33 329.01 112.88 343.39 108.53 352.58C107.55 354.64 106.78 356.44 106.24 357.77C106.16 357.92 106.08 358.09 105.98 358.27C105.35 359.49 104.4 361.38 103.21 363.82C92.4 386.15 62.61 454.65 88.05 484.37C93.41 490.63 99.89 493.86 106.68 493.86C110.04 493.86 113.48 493.07 116.9 491.47C131.14 484.76 144.62 463.38 152.05 436.18C153.27 431.72 154.32 427.11 155.19 422.37C158.1 406.54 158.93 389.4 156.81 372.41ZM111.62 480.25C108.04 481.93 103.19 483.01 97.46 476.31C78.74 454.45 102 394.47 115.04 367.83C115.86 366.16 116.64 364.62 117.36 363.23L117.61 362.69C117.68 362.52 117.75 362.34 117.83 362.17C118.64 360.19 119.53 358.27 120.45 356.44C125.19 347.04 130.88 340.04 133.34 340.04C133.39 340.04 133.43 340.04 133.47 340.05C133.5 340.06 134.82 340.47 136.68 343.83C137.73 345.72 138.95 348.53 140.2 352.72C140.82 354.78 141.45 357.18 142.07 359.97C142.49 361.87 142.92 363.96 143.33 366.25C143.4 366.66 143.48 367.07 143.55 367.49C143.84 369.16 144.1 370.84 144.32 372.51C151.09 422.37 129.76 471.7 111.62 480.25Z" fill="black"/>
<path d="M192.21 360.36C192.21 360.36 238.32 448.81 211.33 480.33C184.34 511.85 142.31 435.98 154.43 366.41C166.55 296.84 192.21 360.36 192.21 360.36Z" fill="#F93500"/>
<path d="M200.06 362.17C199.09 360.2 198.33 358.7 197.84 357.76C197.7 357.41 197.54 357.03 197.37 356.62C196.71 355.07 195.84 353.11 194.77 350.95C189.81 340.94 180.64 326.56 169.3 327.72C168.94 327.76 168.58 327.81 168.23 327.88C166.52 328.19 164.91 328.83 163.41 329.8C160.99 331.35 158.82 333.78 156.89 337.14C155.08 340.27 153.47 344.21 152.04 349.01C151.93 349.35 151.83 349.7 151.74 350.05C151.14 352.11 150.57 354.33 150.04 356.7C149.78 357.84 149.53 359.01 149.29 360.22C149.25 360.42 149.2 360.62 149.16 360.83C149.07 361.3 148.98 361.77 148.88 362.26V362.27C148.69 363.28 148.5 364.31 148.32 365.36C148.26 365.71 148.2 366.05 148.15 366.4C147.8 368.46 147.5 370.53 147.25 372.6C145.16 389.52 146 406.56 148.9 422.32V422.33C149.77 427.08 150.82 431.71 152.05 436.18C159.48 463.37 172.95 484.75 187.18 491.46C190.6 493.07 194.05 493.86 197.41 493.86C204.2 493.86 210.68 490.63 216.03 484.36C242.13 453.88 210.1 382.57 200.06 362.17ZM192.46 480.25C174.28 471.69 152.9 422.19 159.8 372.22C160.01 370.64 160.26 369.07 160.53 367.49C160.62 366.95 160.72 366.42 160.81 365.9C161.24 363.58 161.67 361.46 162.11 359.54C166.21 341.41 170.57 340.06 170.61 340.05C170.66 340.04 170.7 340.04 170.74 340.04C173.09 340.04 178.42 346.45 183.02 355.25C183.96 357.06 184.88 358.96 185.73 360.93C185.98 361.51 186.23 362.1 186.47 362.69L186.72 363.23C187.26 364.26 187.82 365.37 188.41 366.56C201.3 392.52 225.64 454.09 206.62 476.31C200.88 483.01 196.04 481.94 192.46 480.25Z" fill="black"/>
<path d="M127.42 128.71H171.88C168.54 87.79 161.76 21.39 151.67 21.2C141.52 21.02 132.24 88 127.42 128.71Z" fill="#F93500"/>
<path d="M178.07 128.37L178.06 128.2C177.89 126.06 177.71 123.95 177.53 121.89C168.48 15.3 158.85 15.13 151.79 15C144.71 14.86 135.04 14.68 122 121.83C121.76 123.84 121.52 125.89 121.27 127.98L121.22 128.37V128.38L120.45 134.91H178.61V134.9L178.07 128.37ZM134.76 119.67C142.3 58.94 148.35 37.8 151.5 30.46C154.38 37.89 159.62 59.13 164.9 119.71C164.98 120.64 165.06 121.57 165.14 122.52H134.41C134.53 121.56 134.64 120.61 134.76 119.67Z" fill="black"/>
<path d="M149.65 366.42C216.316 366.42 270.36 312.376 270.36 245.71C270.36 179.044 216.316 125 149.65 125C82.9837 125 28.94 179.044 28.94 245.71C28.94 312.376 82.9837 366.42 149.65 366.42Z" fill="#FCD200"/>
<path d="M177.53 121.89C175.44 121.41 173.33 121 171.2 120.64C169.12 120.27 167.02 119.97 164.9 119.71C159.9 119.11 154.81 118.8 149.65 118.8C144.61 118.8 139.64 119.09 134.76 119.67C132.62 119.92 130.5 120.22 128.4 120.59C126.25 120.94 124.11 121.36 122 121.83C65.27 134.49 22.74 185.22 22.74 245.71C22.74 268.49 28.77 289.88 39.32 308.38C40.94 311.22 42.66 313.99 44.49 316.69C46.17 319.17 47.93 321.59 49.78 323.94C63.63 341.57 82.03 355.47 103.21 363.82C105.15 364.59 107.1 365.31 109.09 365.98H109.1C111.06 366.64 113.04 367.26 115.04 367.83C124.4 370.48 134.21 372.09 144.32 372.51C145.29 372.55 146.27 372.58 147.25 372.6C148.05 372.61 148.85 372.62 149.65 372.62C149.96 372.62 150.27 372.62 150.58 372.61C151.56 372.61 152.54 372.59 153.51 372.56C154.61 372.53 155.71 372.48 156.81 372.41C157.81 372.36 158.81 372.3 159.8 372.22C169.7 371.43 179.28 369.5 188.41 366.56C190.39 365.93 192.35 365.25 194.28 364.52C196.23 363.79 198.16 363.01 200.06 362.17C221.63 352.81 240.1 337.62 253.5 318.6C255.35 315.96 257.12 313.24 258.78 310.45C260.62 307.36 262.33 304.19 263.9 300.94C272.01 284.24 276.56 265.49 276.56 245.71C276.56 185.3 234.14 134.62 177.53 121.89ZM254.06 292.74C253.18 294.68 252.25 296.6 251.26 298.48C250.27 300.4 249.21 302.29 248.09 304.14C235.77 324.84 217.09 341.35 194.77 350.95C192.85 351.78 190.9 352.56 188.92 353.28C186.98 353.99 185.01 354.65 183.02 355.25C176.29 357.32 169.3 358.77 162.11 359.54C159.98 359.78 157.82 359.95 155.65 360.06C155.36 360.08 155.07 360.09 154.77 360.1C154.13 360.14 153.48 360.16 152.83 360.17C151.77 360.21 150.71 360.22 149.65 360.22H149.29C149.01 360.22 148.73 360.22 148.46 360.2C147.81 360.21 147.16 360.2 146.52 360.17C145.03 360.14 143.54 360.07 142.07 359.97C134.65 359.48 127.42 358.29 120.45 356.44C118.43 355.92 116.43 355.33 114.46 354.68C112.46 354.04 110.48 353.34 108.53 352.58C86.93 344.25 68.47 329.54 55.47 310.77C54.23 308.99 53.05 307.18 51.92 305.33C50.81 303.52 49.75 301.68 48.74 299.8C40.06 283.68 35.14 265.26 35.14 245.71C35.14 192.57 71.51 147.78 120.66 134.91C129.92 132.48 139.64 131.19 149.65 131.19C159.65 131.19 169.35 132.48 178.61 134.9C227.78 147.76 264.17 192.56 264.17 245.71C264.17 262.46 260.55 278.39 254.06 292.74Z" fill="black"/>
<path d="M95.85 255.79C108.044 255.79 117.93 245.972 117.93 233.86C117.93 221.748 108.044 211.93 95.85 211.93C83.6556 211.93 73.77 221.748 73.77 233.86C73.77 245.972 83.6556 255.79 95.85 255.79Z" fill="#1C1505"/>
<path d="M105.66 229.76C109.09 229.76 111.87 226.998 111.87 223.59C111.87 220.182 109.09 217.42 105.66 217.42C102.23 217.42 99.45 220.182 99.45 223.59C99.45 226.998 102.23 229.76 105.66 229.76Z" fill="white"/>
<path d="M92.75 239.1C94.5339 239.1 95.98 237.663 95.98 235.89C95.98 234.117 94.5339 232.68 92.75 232.68C90.9661 232.68 89.52 234.117 89.52 235.89C89.52 237.663 90.9661 239.1 92.75 239.1Z" fill="white"/>
<path d="M80.73 199.47C82.24 196.67 84.46 194.62 87.03 192.99C89.6 191.37 92.62 190.3 95.86 189.98C99.11 189.69 102.65 190.39 105.49 192.2C106.18 192.69 106.85 193.19 107.47 193.72C108.03 194.33 108.55 194.98 109.02 195.64C109.98 196.93 110.48 198.55 110.77 200.1C110.78 200.16 110.74 200.21 110.69 200.22C110.68 200.22 110.66 200.22 110.65 200.22H110.64C107.36 199.56 105.13 198.78 102.86 198.69C100.67 198.5 98.72 198.46 96.56 198.56C92.22 198.89 87.53 200.07 81.76 200.84L81.68 200.85C81.17 200.92 80.69 200.56 80.62 200.04C80.6 199.84 80.64 199.64 80.73 199.47Z" fill="black"/>
<path d="M201.28 256.53C213.474 256.53 223.36 246.712 223.36 234.6C223.36 222.488 213.474 212.67 201.28 212.67C189.086 212.67 179.2 222.488 179.2 234.6C179.2 246.712 189.086 256.53 201.28 256.53Z" fill="#1C1505"/>
<path d="M211.09 230.49C214.52 230.49 217.3 227.728 217.3 224.32C217.3 220.912 214.52 218.15 211.09 218.15C207.66 218.15 204.88 220.912 204.88 224.32C204.88 227.728 207.66 230.49 211.09 230.49Z" fill="white"/>
<path d="M198.18 239.84C199.964 239.84 201.41 238.403 201.41 236.63C201.41 234.857 199.964 233.42 198.18 233.42C196.396 233.42 194.95 234.857 194.95 236.63C194.95 238.403 196.396 239.84 198.18 239.84Z" fill="white"/>
<path d="M186.16 200.21C187.67 197.41 189.89 195.36 192.46 193.73C195.03 192.11 198.05 191.04 201.29 190.72C204.54 190.43 208.08 191.13 210.92 192.94C211.61 193.43 212.28 193.93 212.9 194.46C213.46 195.07 213.98 195.72 214.45 196.38C215.41 197.67 215.91 199.29 216.2 200.84C216.21 200.9 216.17 200.95 216.12 200.96C216.11 200.96 216.09 200.96 216.08 200.96H216.07C212.79 200.3 210.56 199.52 208.29 199.43C206.1 199.24 204.15 199.2 201.99 199.3C197.65 199.63 192.96 200.81 187.19 201.58L187.11 201.59C186.6 201.66 186.12 201.3 186.05 200.78C186.03 200.57 186.07 200.37 186.16 200.21Z" fill="black"/>
<path d="M122.98 271.72C127.02 269.34 136.56 264.45 149.65 264.45C162.74 264.45 172.28 269.34 176.32 271.72C175.05 280.16 172.84 292.87 169.05 308.09C163.14 331.77 156.89 356.81 149.65 356.72C143.76 356.65 139.39 339.99 131.87 311.33C127.51 294.71 124.69 280.89 122.98 271.72Z" fill="#F9B200"/>
<path d="M178.42 268.16C172.34 264.58 162.42 260.31 149.65 260.31C136.88 260.31 126.96 264.58 120.88 268.16L118.38 269.63L118.91 272.48C119.72 276.83 120.6 281.2 121.53 285.58C121.95 287.61 122.39 289.64 122.85 291.67C123.3 293.7 123.76 295.72 124.23 297.74C125.38 302.64 126.59 307.52 127.87 312.38C129.36 318.04 130.7 323.16 131.95 327.75C132.53 329.9 133.09 331.93 133.64 333.85C134.7 337.6 135.71 340.92 136.68 343.83C137.87 347.38 139.02 350.33 140.2 352.72C142.13 356.66 144.14 359.09 146.52 360.17C147.18 360.48 147.85 360.68 148.57 360.77H148.58C148.77 360.8 148.96 360.82 149.16 360.83C149.31 360.84 149.45 360.85 149.6 360.85H149.7C150.8 360.85 151.84 360.62 152.83 360.17C153.42 359.9 154 359.55 154.57 359.12C155.12 358.7 155.66 358.21 156.18 357.63L156.19 357.62C159.82 353.69 162.86 346.22 166.03 335.61C166.75 333.19 167.48 330.62 168.23 327.88C169.75 322.27 171.34 316 173.06 309.1C174.16 304.7 175.18 300.26 176.12 295.81C176.57 293.76 176.99 291.71 177.39 289.65C177.8 287.6 178.19 285.54 178.56 283.49C179.23 279.77 179.85 276.05 180.41 272.34L180.83 269.58L178.42 268.16ZM170.2 283.31C169.83 285.36 169.44 287.42 169.02 289.48C168.61 291.55 168.17 293.62 167.72 295.68C166.89 299.51 166 303.32 165.05 307.12C162.87 315.83 159.91 327.7 156.89 337.14C155.29 342.18 153.66 346.52 152.14 349.34C152 349.59 151.87 349.83 151.74 350.05C151.05 351.21 150.38 352.04 149.75 352.45C147.43 350.63 144.47 341.77 141.21 330.18C139.49 324.09 137.7 317.25 135.87 310.27C134.71 305.86 133.61 301.43 132.56 296.99C132.08 294.96 131.61 292.92 131.15 290.89C130.69 288.85 130.24 286.81 129.82 284.78C129.03 281.14 128.3 277.51 127.6 273.89C132.83 271.22 140.36 268.57 149.67 268.56C159.01 268.56 166.58 271.24 171.82 273.93C171.32 277.05 170.79 280.18 170.2 283.31Z" fill="black"/>
</svg>
