<svg width="419" height="481" viewBox="0 0 419 481" fill="none" xmlns="http://www.w3.org/2000/svg">
<g clip-path="url(#clip0_2_98)">
<path d="M338.63 457.74C337.91 467.62 336.41 474.88 334.26 481C333.22 483.94 332.03 486.62 330.7 489.19C331.79 486.62 332.81 483.9 333.74 481H85.15C84.1 476.29 83.3 470.4 82.87 462.68C82.03 447.66 82.59 425.69 85.44 391.85C86.11 383.87 86.84 376.06 87.61 368.44C89.17 353.2 90.91 338.69 92.76 324.97C95.48 304.72 98.46 286.19 101.43 269.57C102.88 261.4 104.34 253.7 105.77 246.48C106.1 244.75 106.44 243.05 106.78 241.38C107.24 241.23 107.7 241.09 108.17 240.94C109.14 240.63 110.11 240.33 111.1 240.03C111.76 239.82 112.42 239.62 113.08 239.42C114.53 238.98 116.01 238.54 117.5 238.11C147.1 229.47 183.93 222.14 226.38 221.21C247.74 220.74 267.55 221.95 285.52 224.12C287.97 224.42 290.38 224.73 292.75 225.06C295.05 225.38 297.31 225.71 299.54 226.06C302.88 226.58 306.14 227.13 309.33 227.7C309.52 228.47 309.7 229.25 309.88 230.02C310.5 232.56 311.09 235.09 311.67 237.6C312.23 239.99 312.77 242.36 313.3 244.72C314.95 251.99 316.48 259.13 317.92 266.13C323.18 291.72 327.14 315.5 330.15 337.13C330.17 337.28 330.18 337.36 330.18 337.36C333.33 360.02 335.43 380.32 336.88 397.89C337.09 400.38 337.28 402.8 337.46 405.15C339.22 428.76 339.54 445.31 338.63 457.74Z" fill="white"/>
<path d="M92.76 324.97C92.76 324.97 135.4 330.08 132.81 364.52C130.22 398.96 207.74 460.1 82.87 462.68C82.87 462.69 83.76 382.19 92.76 324.97Z" fill="#353535"/>
<path d="M338.63 457.74C337.6 466.51 335.91 474.22 333.74 481H299.88C302.66 478.59 305.1 476.55 306.73 474.74C314.48 466.13 292.96 462.68 295.54 442.88C297.57 427.37 322.09 412.9 332.64 407.35C335.57 405.81 337.43 404.95 337.43 404.95C337.44 405.02 337.45 405.08 337.46 405.15C340.2 425.94 340.32 443.28 338.63 457.74Z" fill="#353535"/>
<path d="M278.3 316.78C278.3 316.78 302.43 308.67 306.74 324.97C311.05 341.27 330.18 337.36 330.18 337.36C330.18 337.36 320.79 257.86 309.03 242.3C309.02 242.31 319.62 302.62 278.3 316.78Z" fill="#353535"/>
<path d="M341.8 397.49C337.44 344.6 329.07 291.09 316.88 238.26C316.3 235.71 315.7 233.17 315.1 230.62C314.77 229.26 314.45 227.9 314.12 226.54L313.36 223.4L312.77 223.29L310.18 222.83C305.24 221.94 300.27 221.14 295.3 220.44C292.84 220.08 290.37 219.75 287.9 219.44C285.23 219.1 282.56 218.8 279.89 218.52C262.04 216.62 244.09 215.87 226.25 216.26C190.96 217.04 155.7 222.3 121.2 231.9C118.84 232.56 116.48 233.24 114.13 233.94C112.95 234.29 111.78 234.64 110.6 235C109.59 235.31 108.57 235.62 107.56 235.95C106.96 236.13 106.36 236.32 105.76 236.51C105.59 236.56 105.43 236.62 105.26 236.67L102.49 237.56L102.01 239.94L101.92 240.41C91.99 289.74 84.78 340.55 80.5 391.44C76.26 441.83 77.05 466.44 80.06 481H90.23C89.12 476.41 88.26 470.54 87.81 462.55C86.98 447.91 87.51 426.18 90.37 392.27C92.24 370.08 94.67 347.92 97.64 325.88C99.57 311.5 101.74 297.18 104.14 282.95C104.87 278.57 105.63 274.21 106.42 269.86C107.45 264.02 108.53 258.2 109.66 252.4C110.09 250.12 110.54 247.85 110.99 245.59C111.01 245.47 111.04 245.34 111.06 245.22C112.3 244.83 113.55 244.45 114.79 244.07C115.13 243.97 115.46 243.87 115.79 243.78C152.06 232.9 189.25 226.98 226.48 226.17C247.65 225.7 268.97 226.89 290.11 229.72C292.32 230.01 294.52 230.33 296.73 230.66C298.83 230.97 300.94 231.31 303.04 231.66C303.78 231.78 304.53 231.9 305.27 232.03C305.65 233.63 306.03 235.23 306.41 236.84C306.69 238.06 306.98 239.29 307.26 240.52C307.52 241.66 307.78 242.8 308.04 243.94C308.55 246.17 309.05 248.41 309.54 250.65C309.73 251.49 309.92 252.34 310.1 253.18C310.6 255.46 311.09 257.73 311.57 260.01C317.05 285.86 321.61 311.83 325.22 337.77C328.04 358 330.28 378.2 331.94 398.31C332.2 401.44 332.43 404.45 332.64 407.35C335.71 449.37 333.96 467.98 328.95 481H333.74C332.81 483.9 331.79 486.62 330.7 489.19C332.03 486.62 333.22 483.94 334.26 481H339.51C344.46 465.88 345.65 444.25 341.8 397.49Z" fill="black"/>
<path d="M264.77 81.03C264.77 81.03 305.01 53.24 306.74 20.95C306.74 20.95 328.65 72.01 293.8 103.54C258.95 135.07 264.77 81.03 264.77 81.03Z" fill="#7F5128"/>
<path d="M311.29 19.01C310.38 16.9 308.15 15.69 305.87 16.09C303.6 16.49 301.91 18.4 301.79 20.7C300.45 45.83 272.67 68.85 264.31 75.23C262.87 76.33 262.01 76.93 261.95 76.97C261.28 77.43 260.74 78.04 260.38 78.75C260.09 79.29 259.91 79.89 259.84 80.51C259.76 81.25 259.65 82.43 259.56 83.92C259.15 90.58 259.12 103.53 264.14 111.54C265.41 113.58 267.02 115.3 269.02 116.51C269.29 116.67 269.55 116.82 269.83 116.96C271.46 117.79 273.18 118.26 275 118.37C275.29 118.39 275.58 118.4 275.88 118.4C280.9 118.4 286.67 115.77 293.3 110.47C294.49 109.53 295.71 108.49 296.96 107.37C297.01 107.33 297.07 107.28 297.12 107.23C298.36 106.11 299.53 104.97 300.63 103.81C300.96 103.47 301.28 103.13 301.59 102.79C302.97 101.28 304.25 99.75 305.42 98.19C330.55 65.04 312.16 21.04 311.29 19.01ZM293.83 96.58C293.67 96.75 293.51 96.92 293.34 97.09C292.44 98.04 291.49 98.96 290.49 99.87C290.44 99.92 290.39 99.96 290.34 100.01C289.55 100.72 288.79 101.37 288.07 101.97C287.52 102.43 286.99 102.85 286.49 103.25C278.58 109.4 275.26 108.6 274.34 108.13C273.77 107.84 273.26 107.37 272.79 106.74C271.96 105.61 271.29 103.98 270.78 102.04C269.84 98.53 269.39 94.01 269.35 89.58C269.32 87.59 269.38 85.62 269.51 83.77V83.72C270.54 82.95 271.94 81.89 273.6 80.55C282.48 73.38 298.88 58.43 306.98 40.01C309.85 55.66 310.25 78.97 293.83 96.58Z" fill="black"/>
<path d="M150.71 81.03C150.71 81.03 110.47 53.24 108.74 20.95C108.74 20.95 86.83 72.01 121.68 103.54C156.53 135.07 150.71 81.03 150.71 81.03Z" fill="#7F5128"/>
<path d="M155.99 85.2C155.9 83.09 155.74 81.43 155.64 80.49C155.61 80.26 155.57 80.04 155.51 79.82C155.22 78.66 154.52 77.64 153.53 76.95C153.49 76.92 153.03 76.6 152.23 76C145.52 71.02 115.09 47.01 113.69 20.68C113.56 18.38 111.88 16.47 109.61 16.07C107.35 15.67 105.1 16.88 104.19 18.99C103.31 21.05 84.45 66.18 111.05 99.46C112.23 100.93 113.49 102.37 114.85 103.79C115.29 104.26 115.74 104.72 116.21 105.17C116.9 105.86 117.62 106.54 118.36 107.21C118.85 107.65 119.34 108.09 119.82 108.5C119.96 108.63 120.1 108.75 120.25 108.87C121.43 109.88 122.58 110.81 123.7 111.65C125.12 112.72 126.5 113.65 127.83 114.47C129.49 115.47 131.08 116.29 132.62 116.9C134.3 117.59 135.91 118.03 137.46 118.25C138.19 118.35 138.9 118.4 139.6 118.4C141.75 118.4 143.76 117.92 145.66 116.94C155.84 111.76 156.42 94.27 155.99 85.2ZM141.15 108.13C140.57 108.43 139 108.86 135.89 107.54C134.42 106.92 132.62 105.91 130.41 104.31C129.22 103.45 127.91 102.42 126.48 101.18C126 100.77 125.51 100.33 125 99.87C124.97 99.85 124.95 99.82 124.92 99.79C124.22 99.16 123.54 98.51 122.89 97.85C105.22 80.09 105.57 56.04 108.51 40.01C116.96 59.23 134.45 74.69 143.01 81.45C144.18 82.37 145.19 83.13 145.98 83.72C146.02 84.23 146.05 84.76 146.07 85.29C146.16 87.23 146.18 89.26 146.11 91.28C145.85 98.96 144.37 106.49 141.15 108.13Z" fill="black"/>
<path d="M116.49 103.54C116.49 103.54 49.89 111.5 21.93 181.06C21.93 181.06 61.46 193.99 109.48 148.65C157.5 103.31 116.49 103.54 116.49 103.54Z" fill="white"/>
<path d="M137.7 113.25C137.56 111.87 137.24 110.55 136.73 109.29C136.48 108.67 136.2 108.09 135.89 107.54C134.81 105.65 133.36 104.16 131.75 103C130.3 101.94 128.72 101.13 127.13 100.53C126.39 100.24 125.65 100 124.92 99.79C123.79 99.47 122.7 99.24 121.7 99.07C119.47 98.68 117.66 98.61 116.82 98.6H116.46L115.9 98.63C115.49 98.68 113.78 98.9 111.05 99.46C94.7 102.76 41.96 117.97 17.33 179.22L15.36 184.13L20.39 185.77C21.01 185.98 26.78 187.77 36.24 187.77C48.49 187.77 66.92 184.76 88.36 171.39C90.13 170.29 91.92 169.12 93.73 167.87C95.59 166.59 97.47 165.22 99.37 163.77C103.78 160.41 108.29 156.6 112.87 152.27C127.74 138.23 135.8 127.15 137.46 118.25C137.79 116.5 137.87 114.84 137.7 113.25ZM106.08 145.05C105.24 145.84 104.4 146.62 103.56 147.38C103.56 147.38 103.56 147.38 103.56 147.39C101.21 149.51 98.89 151.5 96.59 153.35C94.5 155.05 92.43 156.63 90.39 158.1C61.97 178.63 38.92 178.76 28.86 177.44C52.32 125.87 98.9 112.23 112.97 109.21C114.92 108.79 116.25 108.57 116.8 108.49C117.58 108.51 118.56 108.59 119.6 108.76C119.81 108.79 120.03 108.83 120.25 108.87C121.8 109.16 123.45 109.63 124.81 110.33C126.09 111 127.11 111.86 127.55 112.97C127.68 113.3 127.81 113.78 127.83 114.47C127.99 118.01 125.44 126.77 106.08 145.05Z" fill="black"/>
<path d="M282.56 102.17C282.56 102.17 349.31 95.64 391.57 157.57C391.57 157.57 355.74 178.69 299.1 144.73C242.46 110.77 282.56 102.17 282.56 102.17Z" fill="#353535"/>
<path d="M395.66 154.77C367.61 113.67 329.59 101.55 305.42 98.19C303.37 97.91 301.42 97.69 299.59 97.52C297.74 97.34 296.01 97.22 294.41 97.14C294.05 97.12 293.69 97.11 293.34 97.09C290.93 96.99 288.86 96.97 287.16 97C284.28 97.04 282.49 97.2 282.08 97.24L281.52 97.33C281.31 97.38 280.87 97.47 280.27 97.64C278.23 98.2 274.29 99.51 270.78 102.04C269.32 103.07 267.93 104.32 266.8 105.81C265.55 107.42 264.59 109.32 264.14 111.54C264.09 111.73 264.05 111.93 264.02 112.13C262.23 122.9 272.57 134.6 296.55 148.98C304 153.44 311.11 157 317.85 159.79C319.71 160.56 321.53 161.28 323.33 161.93C325.14 162.6 326.91 163.21 328.66 163.76C341.05 167.71 351.94 169.08 361.1 169.08C381.38 169.08 393.22 162.35 394.08 161.83L398.64 159.14L395.66 154.77ZM326.29 152.48C324.4 151.78 322.48 151.01 320.52 150.17C318.53 149.33 316.51 148.41 314.45 147.41C310.33 145.42 306.06 143.12 301.65 140.48C284 129.9 277.38 122.71 275 118.37C273.71 116.02 273.67 114.51 273.79 113.76C273.82 113.57 273.87 113.39 273.93 113.21C274.98 110.03 280.42 107.79 283.32 107.08C284.09 107.03 286.34 106.9 289.75 106.97C289.88 106.98 290.02 106.98 290.16 106.98C292.1 107.03 294.38 107.14 296.96 107.37C297.06 107.38 297.16 107.39 297.26 107.4C299.41 107.59 301.77 107.86 304.29 108.23C325.6 111.37 358.79 121.87 384.02 155.52C375.13 158.73 354.98 163.13 326.29 152.48Z" fill="black"/>
<path d="M209 299.3C273.203 299.3 325.25 247.253 325.25 183.05C325.25 118.847 273.203 66.8 209 66.8C144.797 66.8 92.75 118.847 92.75 183.05C92.75 247.253 144.797 299.3 209 299.3Z" fill="white"/>
<path d="M328.66 163.76C328.36 161.88 328.02 160.01 327.62 158.17C327.23 156.25 326.79 154.36 326.29 152.48C322.03 136.14 314.44 121.13 304.29 108.23C303.1 106.73 301.89 105.25 300.63 103.81C300.27 103.39 299.91 102.98 299.53 102.57C298.8 101.74 298.05 100.92 297.29 100.11C296.35 99.1 295.39 98.11 294.41 97.14C294.22 96.95 294.02 96.76 293.83 96.58C287.69 90.54 280.91 85.16 273.6 80.55C272.11 79.59 270.6 78.68 269.06 77.81C267.5 76.91 265.92 76.05 264.31 75.23C247.72 66.68 228.92 61.85 209 61.85C188.5 61.85 169.17 66.97 152.23 76C150.63 76.84 149.05 77.73 147.5 78.65C145.98 79.54 144.48 80.47 143.01 81.45C135.73 86.18 128.98 91.69 122.89 97.85C122.49 98.25 122.09 98.66 121.7 99.07C120.94 99.85 120.2 100.64 119.48 101.44C118.83 102.15 118.19 102.86 117.57 103.58C117.11 104.1 116.66 104.63 116.21 105.17C115.1 106.49 114.01 107.84 112.97 109.21C102.05 123.37 94.19 140 90.39 158.1C89.91 160.36 89.5 162.65 89.15 164.96C88.83 167.08 88.56 169.23 88.36 171.39C87.99 175.23 87.8 179.12 87.8 183.05C87.8 203.6 92.94 222.97 102.01 239.94C102.74 241.33 103.51 242.7 104.31 244.06C104.78 244.87 105.27 245.68 105.77 246.48C106.43 247.57 107.11 248.64 107.83 249.7C108.42 250.61 109.03 251.51 109.66 252.4C110.33 253.37 111.03 254.33 111.74 255.28C133.84 284.98 169.21 304.25 209 304.25C246.16 304.25 279.47 287.44 301.71 261.02C303.24 259.21 304.72 257.36 306.14 255.46C307.31 253.89 308.45 252.28 309.54 250.65C309.67 250.47 309.8 250.28 309.91 250.09C309.99 249.99 310.06 249.89 310.11 249.79C310.7 248.93 311.26 248.06 311.8 247.18C312.31 246.37 312.81 245.55 313.3 244.72C314.56 242.61 315.75 240.45 316.88 238.26C325.39 221.69 330.2 202.92 330.2 183.05C330.2 176.49 329.68 170.04 328.66 163.76ZM312.77 223.29C311.89 225.57 310.92 227.81 309.88 230.02C308.81 232.34 307.65 234.61 306.41 236.84C306.28 237.08 306.15 237.31 306.02 237.54C305.01 239.32 303.96 241.08 302.86 242.8C301.75 244.53 300.59 246.24 299.39 247.91C279.17 276.01 246.18 294.34 209 294.34C170.03 294.34 135.67 274.2 115.79 243.78C115.6 243.51 115.42 243.23 115.24 242.95C114.5 241.79 113.77 240.61 113.08 239.42C112.75 238.88 112.43 238.33 112.13 237.78C111.6 236.87 111.09 235.94 110.6 235C110.16 234.18 109.73 233.35 109.32 232.51C101.88 217.6 97.7 200.8 97.7 183.04C97.7 176.47 98.27 170.03 99.37 163.77C99.82 161.2 100.36 158.66 100.99 156.15C101.72 153.18 102.58 150.26 103.56 147.39C103.56 147.38 103.56 147.38 103.56 147.38C108.03 134.19 114.92 122.11 123.7 111.65C124.05 111.21 124.43 110.77 124.81 110.33C125.51 109.51 126.23 108.7 126.96 107.91C127.37 107.46 127.78 107.02 128.2 106.58C128.92 105.82 129.66 105.06 130.41 104.31C130.85 103.87 131.3 103.43 131.75 103C136.19 98.7 141 94.78 146.11 91.28C147.73 90.15 149.38 89.08 151.06 88.05C152.68 87.06 154.32 86.11 155.99 85.2C171.76 76.62 189.82 71.75 209 71.75C227.19 71.75 244.38 76.14 259.56 83.92C261.21 84.76 262.84 85.65 264.44 86.57C266.11 87.53 267.74 88.53 269.35 89.58C273.16 92.04 276.8 94.73 280.27 97.64C281.96 99.05 283.61 100.51 285.21 102.02C285.64 102.42 286.07 102.83 286.49 103.25C287.69 104.4 288.85 105.58 289.98 106.79C290.05 106.85 290.11 106.92 290.16 106.98C291.24 108.12 292.29 109.28 293.3 110.47C302.56 121.2 309.81 133.71 314.45 147.41C315.16 149.5 315.8 151.61 316.38 153.75C316.93 155.74 317.42 157.75 317.85 159.79C319.46 167.29 320.3 175.07 320.3 183.05C320.3 197.23 317.63 210.8 312.77 223.29Z" fill="black"/>
<path d="M206.42 339.78C261.825 339.78 306.74 305.754 306.74 263.78C306.74 221.806 261.825 187.78 206.42 187.78C151.015 187.78 106.1 221.806 106.1 263.78C106.1 305.754 151.015 339.78 206.42 339.78Z" fill="#FFCFD5"/>
<path d="M311.57 260.01C311.37 256.54 310.88 253.13 310.11 249.79C310.01 249.31 309.89 248.83 309.77 248.35C309.36 246.7 308.88 245.07 308.34 243.46C308 242.47 307.65 241.49 307.26 240.52C306.87 239.52 306.46 238.53 306.02 237.54C305.13 235.54 304.14 233.58 303.04 231.66C301.98 229.75 300.81 227.88 299.54 226.06C298.23 224.14 296.81 222.26 295.3 220.44C276.61 197.84 243.75 182.82 206.42 182.82C162.77 182.82 125.25 203.35 109.32 232.51C108.7 233.64 108.11 234.79 107.56 235.95C107.22 236.66 106.89 237.37 106.58 238.08C105.73 240.04 104.97 242.04 104.31 244.06C102.24 250.37 101.15 256.97 101.15 263.77C101.15 265.72 101.24 267.65 101.43 269.57C101.84 274.15 102.76 278.62 104.14 282.95C115.37 318.36 156.97 344.72 206.42 344.72C239.28 344.72 268.68 333.08 287.99 314.88C302.8 300.94 311.69 283.14 311.69 263.77C311.69 262.51 311.65 261.26 311.57 260.01ZM111.74 255.28C112.08 253.11 112.56 250.97 113.17 248.86C113.63 247.24 114.17 245.64 114.79 244.07C114.93 243.7 115.08 243.32 115.24 242.95C115.91 241.31 116.66 239.7 117.5 238.11C118.6 235.99 119.84 233.92 121.2 231.9C136.91 208.69 169.21 192.73 206.42 192.73C235.95 192.73 262.38 202.78 279.89 218.52C281.89 220.32 283.77 222.18 285.52 224.12C287.16 225.93 288.69 227.8 290.11 229.72C294.26 235.36 297.42 241.47 299.39 247.91C300.03 249.98 300.54 252.09 300.92 254.22C301.34 256.46 301.6 258.72 301.71 261.02C301.77 261.93 301.79 262.85 301.79 263.78C301.79 302.96 259.01 334.83 206.42 334.83C153.83 334.83 111.05 302.96 111.05 263.78C111.05 260.9 111.28 258.07 111.74 255.28Z" fill="black"/>
<path d="M262.145 254.847C263.396 247.138 258.161 239.875 250.453 238.624C242.744 237.373 235.481 242.608 234.23 250.316C232.979 258.025 238.214 265.288 245.922 266.539C253.631 267.79 260.894 262.555 262.145 254.847Z" fill="#EAADB9"/>
<path d="M166.17 266.72C173.979 266.72 180.31 260.389 180.31 252.58C180.31 244.771 173.979 238.44 166.17 238.44C158.361 238.44 152.03 244.771 152.03 252.58C152.03 260.389 158.361 266.72 166.17 266.72Z" fill="#EAADB9"/>
<path d="M165.51 172.04C173.485 172.04 179.95 165.575 179.95 157.6C179.95 149.625 173.485 143.16 165.51 143.16C157.535 143.16 151.07 149.625 151.07 157.6C151.07 165.575 157.535 172.04 165.51 172.04Z" fill="#1C1505"/>
<path d="M150.56 137.19C151.08 134.73 152.52 132.63 154.5 131.01C156.47 129.39 159.04 128.38 161.67 128.11C164.29 127.9 166.9 128.42 169.11 129.5C169.69 129.72 170.17 130.1 170.69 130.42C171.19 130.76 171.68 131.11 172.15 131.48C173.02 132.32 173.83 133.2 174.49 134.23C174.83 134.76 174.67 135.46 174.15 135.8C173.95 135.92 173.74 135.98 173.52 135.98H173.39C172.18 135.96 171.14 135.79 170.14 135.59C169.11 135.51 168.16 135.29 167.24 135.16C166.32 135.08 165.44 134.87 164.58 134.85C163.72 134.71 162.9 134.76 162.07 134.69C160.43 134.73 158.81 134.97 157.08 135.48C155.35 135.98 153.53 136.81 151.59 137.84L151.49 137.89C151.18 138.06 150.79 137.94 150.62 137.62C150.55 137.49 150.53 137.33 150.56 137.19Z" fill="#1C1505"/>
<path d="M171.93 154.89C174.172 154.89 175.99 153.072 175.99 150.83C175.99 148.588 174.172 146.77 171.93 146.77C169.688 146.77 167.87 148.588 167.87 150.83C167.87 153.072 169.688 154.89 171.93 154.89Z" fill="white"/>
<path d="M163.49 161.04C164.655 161.04 165.6 160.095 165.6 158.93C165.6 157.765 164.655 156.82 163.49 156.82C162.325 156.82 161.38 157.765 161.38 158.93C161.38 160.095 162.325 161.04 163.49 161.04Z" fill="white"/>
<path d="M264.59 160.683C265.868 152.811 260.522 145.394 252.65 144.116C244.778 142.838 237.36 148.184 236.083 156.056C234.805 163.928 240.151 171.346 248.023 172.623C255.895 173.901 263.313 168.555 264.59 160.683Z" fill="#1C1505"/>
<path d="M244.78 133.99C245.88 131.72 247.77 130.03 250.08 128.93C252.38 127.83 255.12 127.46 257.73 127.83C260.33 128.25 262.73 129.38 264.62 130.96C265.13 131.31 265.51 131.8 265.93 132.23C266.34 132.68 266.73 133.14 267.09 133.61C267.73 134.63 268.31 135.68 268.7 136.84C268.9 137.43 268.58 138.08 267.99 138.28C267.77 138.35 267.54 138.36 267.34 138.3L267.22 138.27C266.05 137.96 265.08 137.55 264.16 137.11C263.18 136.79 262.31 136.34 261.45 136C260.57 135.7 259.77 135.28 258.94 135.07C258.14 134.73 257.33 134.58 256.54 134.31C254.94 133.96 253.31 133.8 251.5 133.88C249.7 133.95 247.74 134.33 245.61 134.86L245.5 134.89C245.16 134.98 244.81 134.77 244.72 134.42C244.7 134.28 244.72 134.12 244.78 133.99Z" fill="#1C1505"/>
<path d="M256.75 155.66C258.992 155.66 260.81 153.842 260.81 151.6C260.81 149.358 258.992 147.54 256.75 147.54C254.508 147.54 252.69 149.358 252.69 151.6C252.69 153.842 254.508 155.66 256.75 155.66Z" fill="white"/>
<path d="M248.31 161.82C249.475 161.82 250.42 160.875 250.42 159.71C250.42 158.545 249.475 157.6 248.31 157.6C247.145 157.6 246.2 158.545 246.2 159.71C246.2 160.875 247.145 161.82 248.31 161.82Z" fill="white"/>
</g>
<defs>
<clipPath id="clip0_2_98">
<rect width="419" height="481" fill="white"/>
</clipPath>
</defs>
</svg>
