<svg width="384" height="427" viewBox="0 0 384 427" fill="none" xmlns="http://www.w3.org/2000/svg">
<path d="M317.87 427H83.09C84.28 410.32 90.26 387.66 98.88 354.96C108.66 317.88 120.24 288.02 129.17 267.42C129.68 266.24 130.18 265.08 130.68 263.96C130.68 263.95 130.69 263.94 130.69 263.93C135.66 263.45 140.44 263 145.03 262.58C220.95 255.6 246.25 256.2 261.64 258.38C264.57 258.79 267.13 259.26 269.62 259.75C269.62 259.76 269.62 259.76 269.63 259.77C270.03 260.94 270.45 262.15 270.89 263.41C276.99 281.06 285.47 306.46 294.79 337.24C308.31 381.9 316.72 410.05 317.87 427Z" fill="#DDAC78"/>
<path d="M298.4 336.16C290.87 311.29 282.81 286.4 274.42 262.12C274.01 260.92 273.6 259.72 273.18 258.52C273.18 258.51 273.17 258.49 273.16 258.48C272.72 257.23 271.65 256.31 270.34 256.05C270.04 255.99 269.73 255.93 269.43 255.88C251.42 252.44 228.69 250.71 130.7 260.14C130.57 260.16 130.45 260.17 130.32 260.18C128.96 260.32 127.78 261.17 127.23 262.42C127.13 262.65 127.03 262.88 126.93 263.11C126.43 264.25 125.93 265.39 125.44 266.54C113.26 294.72 103.12 324.13 95.23 354.01C86.55 386.89 80.5 409.84 79.32 427H86.86C88.06 410.79 93.97 388.38 102.53 355.93C110.43 325.94 120.67 296.44 132.94 268.19C133.04 267.95 133.15 267.72 133.25 267.48C137.31 267.09 141.25 266.72 145.05 266.37C153.12 265.63 160.62 264.98 167.59 264.4C213.41 260.61 236.61 260.23 250.48 261.05C255.17 261.32 258.79 261.73 261.86 262.2C263.65 262.46 265.25 262.75 266.77 263.04C266.95 263.56 267.13 264.08 267.31 264.6C275.65 288.77 283.68 313.56 291.18 338.33C303.96 380.56 312.86 409.98 314.09 427H321.69C320.62 410.26 312.64 383.22 298.4 336.16Z" fill="black"/>
<path d="M128.27 53.17C128.27 53.17 106.53 19.59 68.79 27.14C31.05 34.69 0.859997 95.07 31.05 135.32C31.05 135.32 36.08 145.38 48.66 160.48C48.66 160.48 75.11 93.96 90.82 93.26C90.82 93.26 122.34 104.36 128.27 53.17Z" fill="#C48A57"/>
<path d="M131.44 51.11C131.44 51.1 131.42 51.09 131.41 51.06C131.24 50.82 130.51 49.74 129.23 48.13C129.22 48.14 129.22 48.13 129.22 48.13C128.54 47.28 127.71 46.27 126.71 45.16C118 35.38 97.53 17.54 68.05 23.43C48.15 27.41 29.43 45.3 20.38 69C11.03 93.47 13.75 118.35 27.84 137.32C28.82 139.2 34.13 148.93 45.76 162.89C46.48 163.76 47.55 164.25 48.66 164.25C48.86 164.25 49.06 164.24 49.26 164.2C50.57 163.99 51.68 163.11 52.17 161.87C57.76 147.82 64.6 133.2 71.17 121.42C75.93 112.88 80.55 105.82 84.45 101.53C86.74 98.99 88.79 97.42 90.47 97.09C90.6 97.12 90.74 97.16 90.89 97.2C94.27 98.05 103.54 99.57 112.69 93.86C123.18 87.3 129.68 73.76 132.02 53.6C132.12 52.73 131.92 51.85 131.44 51.11ZM108.77 87.4C103.55 90.71 98.25 90.75 95.06 90.34C93.3 90.11 92.18 89.74 92.06 89.7C91.84 89.62 91.61 89.57 91.38 89.53C91.14 89.49 90.89 89.48 90.64 89.49C89.09 89.56 87.49 90.07 85.87 90.95C71.64 98.67 55.16 134.88 47.57 153.14C38.36 141.37 34.46 133.72 34.42 133.63C34.32 133.43 34.2 133.24 34.07 133.06C21.4 116.17 18.98 93.8 27.43 71.7C35.58 50.36 52.1 34.32 69.53 30.84C73.12 30.12 76.54 29.8 79.81 29.8C100.09 29.8 114.15 42.23 120.78 49.72C121.78 50.86 122.61 51.88 123.27 52.72C123.7 53.27 124.05 53.75 124.33 54.14C124.21 55.06 124.08 55.97 123.94 56.86C121.59 72.07 116.37 82.59 108.77 87.4Z" fill="black"/>
<path d="M317.21 22.11C279.47 14.56 257.73 48.14 257.73 48.14C257.73 48.16 257.73 48.17 257.74 48.19C239.93 35.37 218.64 27.14 193.94 27.14C114.27 27.14 73.83 107.34 65.63 155.45C63.14 170.1 56.85 203.42 75.69 230.93C100.8 267.6 152.65 268.23 188.9 268.67C224.13 269.1 284.93 269.84 312.18 228.42C330.02 201.29 324.63 169.52 322.24 155.46C318.76 134.94 309.65 110.37 295.18 88.24C310.89 88.95 337.34 155.46 337.34 155.46C349.92 140.36 354.95 130.3 354.95 130.3C385.14 90.03 354.95 29.65 317.21 22.11Z" fill="#DDAC78"/>
<path d="M365.63 63.99C356.58 40.29 337.86 22.4 317.96 18.42C285.31 11.89 263.7 34.49 256.88 42.99C237.64 29.97 216.48 23.37 193.94 23.37C167.49 23.37 145.13 31.87 126.71 45.16C125.7 45.89 124.7 46.63 123.72 47.39C122.73 48.15 121.75 48.92 120.78 49.72C106.61 61.25 95 75.65 85.87 90.95C84.06 93.98 82.35 97.04 80.74 100.13C77.04 107.18 73.85 114.34 71.17 121.42C66.76 133.02 63.68 144.42 61.91 154.82L61.73 155.89C59 171.81 53.32 204.94 72.58 233.05C85.35 251.7 104.76 261.42 125.44 266.54C126.68 266.84 127.93 267.13 129.17 267.42C130.43 267.69 131.68 267.95 132.94 268.19C152.48 271.99 172.56 272.24 188.86 272.43C192.8 272.48 197.03 272.53 201.48 272.53C221.29 272.53 245.35 271.51 267.31 264.6C268.51 264.22 269.71 263.83 270.89 263.41C272.08 263 273.25 262.57 274.42 262.12C290.56 255.91 305.1 246.06 315.35 230.5C334.01 202.14 328.38 168.99 325.98 154.84C323.7 141.38 319.23 127.1 313.1 113.33C320.19 125.59 327.76 141.55 333.85 156.86C334.34 158.09 335.45 158.98 336.76 159.19C338.08 159.39 339.4 158.9 340.25 157.88C351.88 143.92 357.19 134.19 358.17 132.31C372.25 113.34 374.98 88.46 365.63 63.99ZM351.58 128.6C351.54 128.69 347.65 136.35 338.43 148.11C329.98 127.76 310.49 85.14 295.36 84.46C293.94 84.41 292.61 85.13 291.91 86.36C291.21 87.59 291.25 89.11 292.03 90.3C305.19 110.42 314.85 134.4 318.53 156.09C320.78 169.36 326.06 200.45 309.03 226.34C299.36 241.04 285.21 250.2 269.43 255.88C266.87 256.8 264.27 257.63 261.64 258.38C257.97 259.42 254.24 260.31 250.48 261.05C228.69 265.37 206.03 265.1 188.95 264.89C182.21 264.8 175 264.72 167.59 264.4C160.2 264.09 152.59 263.56 145.03 262.58C140.22 261.97 135.42 261.17 130.7 260.14C110.15 255.65 91.1 246.74 78.81 228.79C61.28 203.19 66.61 172.1 69.17 157.16L69.35 156.08C72.42 138.08 79.54 116.93 90.89 97.2C91.55 96.06 92.22 94.93 92.91 93.8C93.6 92.64 94.32 91.49 95.06 90.34C102.93 78 112.54 66.44 123.94 56.86C125.35 55.68 126.78 54.53 128.24 53.4C129.29 52.61 130.34 51.82 131.41 51.06C148.62 38.75 169.42 30.91 193.94 30.91C216.07 30.91 236.79 37.75 255.54 51.25C256.73 52.11 258.31 52.2 259.59 51.48C260.26 51.1 260.79 50.53 261.12 49.86C263.53 46.32 283.3 19.18 316.47 25.81C333.89 29.3 350.42 45.33 358.57 66.67C367.02 88.78 364.6 111.14 351.93 128.03C351.8 128.21 351.68 128.4 351.58 128.6Z" fill="black"/>
<path d="M148.02 150.83C157.254 150.83 164.74 143.344 164.74 134.11C164.74 124.876 157.254 117.39 148.02 117.39C138.786 117.39 131.3 124.876 131.3 134.11C131.3 143.344 138.786 150.83 148.02 150.83Z" fill="#1C1505"/>
<path d="M130.7 110.48C131.3 107.63 132.97 105.2 135.26 103.32C137.54 101.44 140.52 100.27 143.56 99.97C146.6 99.73 149.61 100.33 152.18 101.58C152.85 101.84 153.41 102.28 154.01 102.65C154.59 103.05 155.16 103.45 155.7 103.88C156.7 104.85 157.64 105.87 158.41 107.06C158.8 107.67 158.62 108.48 158.01 108.87C157.78 109.01 157.53 109.08 157.28 109.08H157.13C155.73 109.06 154.52 108.86 153.36 108.63C152.17 108.54 151.07 108.28 150.01 108.14C148.94 108.05 147.92 107.8 146.93 107.79C145.93 107.63 144.99 107.69 144.02 107.6C142.12 107.65 140.25 107.92 138.24 108.51C136.24 109.09 134.13 110.05 131.89 111.24L131.78 111.3C131.42 111.49 130.97 111.35 130.77 110.99C130.69 110.83 130.67 110.65 130.7 110.48Z" fill="#1C1505"/>
<path d="M155.45 130.97C158.046 130.97 160.15 128.866 160.15 126.27C160.15 123.674 158.046 121.57 155.45 121.57C152.854 121.57 150.75 123.674 150.75 126.27C150.75 128.866 152.854 130.97 155.45 130.97Z" fill="white"/>
<path d="M145.67 138.1C147.023 138.1 148.12 137.003 148.12 135.65C148.12 134.297 147.023 133.2 145.67 133.2C144.317 133.2 143.22 134.297 143.22 135.65C143.22 137.003 144.317 138.1 145.67 138.1Z" fill="white"/>
<path d="M232.94 150.83C242.174 150.83 249.66 143.344 249.66 134.11C249.66 124.876 242.174 117.39 232.94 117.39C223.706 117.39 216.22 124.876 216.22 134.11C216.22 143.344 223.706 150.83 232.94 150.83Z" fill="#1C1505"/>
<path d="M250.26 110.48C249.66 107.63 247.99 105.2 245.7 103.32C243.42 101.44 240.44 100.27 237.4 99.97C234.36 99.73 231.35 100.33 228.78 101.58C228.11 101.84 227.55 102.28 226.95 102.65C226.37 103.05 225.8 103.45 225.26 103.88C224.26 104.85 223.32 105.87 222.55 107.06C222.16 107.67 222.34 108.48 222.95 108.87C223.18 109.01 223.43 109.08 223.68 109.08H223.83C225.23 109.06 226.44 108.86 227.6 108.63C228.79 108.54 229.89 108.28 230.95 108.14C232.02 108.05 233.04 107.8 234.03 107.79C235.03 107.63 235.97 107.69 236.94 107.6C238.84 107.65 240.71 107.92 242.72 108.51C244.72 109.09 246.83 110.05 249.07 111.24L249.18 111.3C249.54 111.49 249.99 111.35 250.19 110.99C250.27 110.83 250.29 110.65 250.26 110.48Z" fill="#1C1505"/>
<path d="M240.61 130.97C243.206 130.97 245.31 128.866 245.31 126.27C245.31 123.674 243.206 121.57 240.61 121.57C238.014 121.57 235.91 123.674 235.91 126.27C235.91 128.866 238.014 130.97 240.61 130.97Z" fill="white"/>
<path d="M232.77 138.1C234.123 138.1 235.22 137.003 235.22 135.65C235.22 134.297 234.123 133.2 232.77 133.2C231.417 133.2 230.32 134.297 230.32 135.65C230.32 137.003 231.417 138.1 232.77 138.1Z" fill="white"/>
<path d="M209.03 168.02C208.7 170.11 207.13 171.93 204 175.57C198.22 182.28 195.34 185.63 191.42 185.63C187.5 185.63 184.68 182.22 178.84 175.57C175.72 172.01 174.16 170.23 173.81 168.02C172.71 161.1 180.69 150.41 191.42 150.41C201.76 150.41 210.15 160.97 209.03 168.02Z" fill="#1C1505"/>
<path d="M204.659 161.415C205.453 160.133 203.82 157.685 201.011 155.947C198.203 154.208 195.283 153.839 194.49 155.121C193.696 156.403 195.33 158.851 198.138 160.589C200.946 162.327 203.866 162.697 204.659 161.415Z" fill="white"/>
<path d="M208.98 225.7C196.82 225.7 188.87 217.95 188.75 217.84C188.04 217.13 187.64 216.17 187.64 215.17V185.64C187.64 183.56 189.33 181.87 191.41 181.87C193.49 181.87 195.18 183.56 195.18 185.64V213.45C198.69 216.19 210.15 223.17 225.1 212.14C226.78 210.9 229.14 211.26 230.38 212.94C231.62 214.62 231.26 216.98 229.58 218.22C221.99 223.82 214.97 225.7 208.98 225.7Z" fill="black"/>
<path d="M177.29 226.17C171.06 226.17 164.52 223.47 157.79 218.13C156.16 216.83 155.89 214.46 157.19 212.83C158.49 211.2 160.86 210.93 162.49 212.23C168.63 217.12 174.28 219.23 179.29 218.49C185.07 217.64 188.26 213.11 188.29 213.07C189.47 211.37 191.81 210.92 193.53 212.08C195.24 213.25 195.71 215.56 194.55 217.29C194.35 217.58 189.62 224.52 180.56 225.94C179.49 226.08 178.39 226.17 177.29 226.17Z" fill="black"/>
</svg>
