<svg width="423" height="647" viewBox="0 0 423 647" fill="none" xmlns="http://www.w3.org/2000/svg">
<g clip-path="url(#clip0_2_281)">
<path d="M337.675 647.01H75.2746C76.0846 612.07 80.2546 571.121 91.2146 526.471C97.5746 500.541 105.295 477.16 113.385 456.44C113.385 456.43 113.385 456.431 113.385 456.431C113.825 455.061 114.345 453.73 114.915 452.44C114.965 452.34 115.005 452.241 115.055 452.151C115.605 450.951 116.205 449.8 116.875 448.68C124.285 436.1 138.635 428.04 156.305 423.43C160.955 422.22 165.835 421.24 170.875 420.49C190.745 417.52 213.145 417.96 234.065 420.62C239.035 421.26 243.935 422.02 248.685 422.89C274.255 427.57 295.815 435.43 304.915 444C305.815 444.84 306.595 445.69 307.235 446.55C307.365 446.71 307.475 446.86 307.575 447.02C307.835 447.38 308.065 447.73 308.265 448.09C308.515 449.15 308.755 450.21 308.995 451.27C319.345 496.04 328.135 545.63 333.715 599.57C335.385 615.77 336.695 631.59 337.675 647.01Z" fill="#9A8F81"/>
<path d="M337.615 599.18C332.365 548.37 323.795 497.32 312.145 447.45C312.125 447.37 312.105 447.29 312.085 447.21C311.995 446.85 311.865 446.5 311.675 446.17C311.235 445.4 310.705 444.63 310.095 443.87C309.985 443.73 309.865 443.58 309.735 443.44C309.035 442.61 308.235 441.78 307.335 440.98C297.095 431.7 274.675 423.73 248.765 419.03C244.005 418.17 239.125 417.42 234.175 416.79C215.515 414.42 195.925 413.81 178.335 415.62C175.735 415.89 173.205 416.2 170.745 416.56C165.595 417.31 160.735 418.26 156.175 419.41C136.125 424.45 121.905 433.29 114.185 445.54C113.485 446.65 112.845 447.78 112.245 448.94C112.205 449.04 112.155 449.14 112.105 449.23C111.475 450.49 110.905 451.78 110.405 453.11C110.155 453.77 109.915 454.44 109.695 455.12C100.745 478.03 93.2446 501.721 87.4046 525.541C77.6846 565.141 72.3046 605.91 71.3546 647.01H79.2046C80.1546 606.53 85.4546 566.401 95.0146 527.411C100.635 504.481 107.815 481.67 116.365 459.59C116.585 459.01 116.815 458.44 117.035 457.86C117.065 457.79 117.095 457.72 117.115 457.64C117.335 456.95 117.575 456.27 117.845 455.61C117.875 455.51 117.915 455.41 117.965 455.31C118.455 454.08 119.015 452.89 119.635 451.74C126.655 438.74 141.295 431.41 156.825 427.34C161.415 426.12 166.085 425.2 170.655 424.5C173.535 424.05 176.375 423.69 179.135 423.41C196.905 421.58 216.225 422.3 234.305 424.66C239.045 425.28 243.695 426.02 248.215 426.84C273.465 431.48 294.465 439.14 302.435 446.98C303.315 447.85 304.035 448.71 304.585 449.58C304.595 449.61 304.595 449.64 304.605 449.67C304.655 449.9 304.715 450.12 304.765 450.35C305.115 451.87 305.475 453.4 305.815 454.93C316.725 502.671 324.795 551.431 329.815 599.971C331.425 615.551 332.745 631.29 333.735 647.01H341.595C340.585 631.03 339.255 615.01 337.615 599.18Z" fill="black"/>
<path d="M302.525 186.36C302.525 186.36 321.755 76.4505 385.535 24.9305C385.535 24.9305 432.065 124.57 335.205 239.11C319.305 259.2 293.095 223.79 302.525 186.36Z" fill="#9A8F81"/>
<path d="M389.095 23.2605C388.585 22.1705 387.595 21.3705 386.425 21.1005C385.245 20.8305 384.015 21.1105 383.075 21.8705C327.785 66.5205 305.705 152.41 300.125 178.27C299.745 180.08 299.435 181.59 299.205 182.78V182.79C298.935 184.16 298.765 185.09 298.685 185.53C298.515 186.19 298.365 186.85 298.225 187.51C292.375 214.27 303.325 240.11 317.315 247.01C319.835 248.26 322.365 248.87 324.825 248.87C327.935 248.87 330.925 247.9 333.655 245.99C334.765 245.22 335.835 244.29 336.835 243.21C337.315 242.71 337.775 242.18 338.215 241.62C338.705 241.04 339.195 240.45 339.675 239.87C389.215 180.48 400.185 125.18 400.625 89.1005C401.105 49.4405 389.585 24.3105 389.095 23.2605ZM392.775 89.4305C392.285 123.48 381.975 175.4 336.245 231.7C335.355 232.81 334.435 233.92 333.505 235.03C333.065 235.57 332.605 236.12 332.145 236.66C331.645 237.29 331.135 237.85 330.625 238.34C327.625 241.23 324.385 241.76 320.785 239.98C311.575 235.44 302.215 216.96 304.865 195.15C305.075 193.45 305.355 191.72 305.725 189.98C305.895 189.1 306.095 188.2 306.325 187.31C306.345 187.22 306.365 187.12 306.385 187.03C306.395 186.95 306.505 186.36 306.715 185.3C309.445 171.51 329.435 79.0905 383.895 31.4305C387.095 40.3905 393.175 61.2305 392.775 89.4305Z" fill="black"/>
<path d="M121.105 186.36C121.105 186.36 101.875 76.4505 38.0946 24.9305C38.0946 24.9305 -8.43542 124.57 88.4246 239.11C104.325 259.2 130.535 223.79 121.105 186.36Z" fill="#9A8F81"/>
<path d="M124.945 185.54C124.865 185.08 124.685 184.08 124.385 182.6C124.145 181.39 123.835 179.85 123.435 178.02C123.155 176.72 122.835 175.28 122.465 173.69C115.495 143.46 92.9246 64.1805 40.5546 21.8805C39.6246 21.1205 38.3846 20.8405 37.2146 21.1105C36.0346 21.3805 35.0546 22.1805 34.5446 23.2705C34.0546 24.3205 22.5346 49.4505 23.0146 89.1105C23.4346 124.24 33.8646 177.61 80.0846 235.14C80.9846 236.27 81.9146 237.41 82.8446 238.54C83.6746 239.54 84.5046 240.54 85.3546 241.54C85.4746 241.69 85.5946 241.84 85.7146 241.98C89.4646 246.52 94.0146 248.87 98.8246 248.87C101.275 248.87 103.795 248.26 106.315 247.02C120.645 239.95 131.795 212.98 124.945 185.54ZM102.835 239.98C98.6146 242.07 94.9046 240.98 91.4046 236.57C90.6446 235.68 89.9046 234.78 89.1546 233.89C88.2146 232.75 87.2846 231.61 86.3746 230.47C85.4646 229.34 84.5746 228.21 83.7046 227.09C41.1146 172.62 31.3246 122.58 30.8546 89.4405C30.4446 61.2305 36.5346 40.3905 39.7346 31.4305C89.5846 75.0505 110.565 156.18 115.835 180.18C116.255 182.06 116.575 183.6 116.795 184.73C117.075 186.15 117.225 186.94 117.235 187.03C117.255 187.12 117.275 187.22 117.295 187.31C117.475 188.04 117.645 188.77 117.795 189.49C123.005 213.7 112.835 235.05 102.835 239.98Z" fill="black"/>
<path d="M208.915 497.15C287.157 497.15 350.585 417.663 350.585 319.61C350.585 221.558 287.157 142.07 208.915 142.07C130.672 142.07 67.2446 221.558 67.2446 319.61C67.2446 417.663 130.672 497.15 208.915 497.15Z" fill="#9A8F81"/>
<path d="M75.0146 377.7C75.0146 377.7 200.745 297.49 342.815 377.7C342.815 377.7 321.155 469.1 237.435 493.55C153.715 518.01 88.2946 436.09 75.0146 377.7Z" fill="#D1C5BB"/>
<path d="M163.525 437.81C167.589 437.81 170.885 429.846 170.885 420.02C170.885 410.195 167.589 402.23 163.525 402.23C159.46 402.23 156.165 410.195 156.165 420.02C156.165 429.846 159.46 437.81 163.525 437.81Z" fill="#756C63"/>
<path d="M241.415 437.81C245.479 437.81 248.775 429.846 248.775 420.02C248.775 410.195 245.479 402.23 241.415 402.23C237.35 402.23 234.055 410.195 234.055 420.02C234.055 429.846 237.35 437.81 241.415 437.81Z" fill="#756C63"/>
<path d="M339.675 239.87C339.135 238.48 338.575 237.11 338.005 235.75C337.435 234.39 336.845 233.04 336.245 231.7C328.475 214.28 318.475 198.61 306.715 185.3C305.635 184.08 304.545 182.88 303.445 181.7C302.345 180.54 301.245 179.39 300.125 178.27C275.155 153.18 243.415 138.15 208.915 138.15C176.575 138.15 146.655 151.36 122.465 173.69C121.345 174.72 120.235 175.78 119.135 176.85C118.025 177.94 116.925 179.05 115.835 180.18C103.115 193.39 92.2146 209.26 83.7046 227.09C83.0746 228.41 82.4546 229.74 81.8546 231.08C81.2546 232.42 80.6646 233.78 80.0846 235.14C69.3846 260.38 63.3246 289.13 63.3246 319.61C63.3246 372.36 81.4746 419.93 110.405 453.11C111.385 454.23 112.375 455.34 113.385 456.43C113.385 456.43 113.385 456.43 113.385 456.44C114.365 457.51 115.365 458.56 116.365 459.59C141.545 485.49 173.795 501.07 208.915 501.07C246.095 501.07 280.055 483.61 305.815 454.93C306.885 453.73 307.955 452.51 308.995 451.27C310.055 450.02 311.105 448.75 312.145 447.45C338.305 414.63 354.505 369.43 354.505 319.61C354.505 291.02 349.175 263.95 339.675 239.87ZM307.335 440.98C306.545 442 305.745 443 304.915 444C304.115 445.01 303.285 446 302.435 446.98C277.865 475.68 244.985 493.24 208.915 493.24C174.885 493.24 143.695 477.61 119.635 451.74C118.705 450.74 117.775 449.72 116.875 448.68C115.955 447.65 115.055 446.6 114.185 445.54C98.1746 426.41 85.8046 402.49 78.5246 375.63C73.7546 358.05 71.1646 339.2 71.1646 319.61C71.1646 291.72 76.4046 265.35 85.7146 241.98C86.2646 240.6 86.8246 239.23 87.4046 237.88C87.9746 236.54 88.5546 235.21 89.1546 233.89C96.7146 217.16 106.425 202.16 117.795 189.49C118.865 188.31 119.945 187.14 121.035 186C122.135 184.84 123.255 183.71 124.385 182.6C147.735 159.66 177.085 145.98 208.915 145.98C242.955 145.98 274.155 161.62 298.225 187.51C299.335 188.71 300.435 189.93 301.515 191.17C302.655 192.47 303.775 193.8 304.865 195.15C315.135 207.72 323.845 222.28 330.625 238.34C331.155 239.6 331.675 240.88 332.185 242.17C332.695 243.43 333.185 244.71 333.655 245.99C342.005 268.35 346.665 293.31 346.665 319.61C346.665 339.24 344.065 358.13 339.275 375.74C332.565 400.46 321.535 422.69 307.335 440.98Z" fill="black"/>
<path d="M158.565 317.41C171.808 317.41 182.545 306.746 182.545 293.59C182.545 280.435 171.808 269.771 158.565 269.771C145.321 269.771 134.585 280.435 134.585 293.59C134.585 306.746 145.321 317.41 158.565 317.41Z" fill="#1C1505"/>
<path d="M169.215 289.13C172.943 289.13 175.965 286.131 175.965 282.43C175.965 278.73 172.943 275.73 169.215 275.73C165.487 275.73 162.465 278.73 162.465 282.43C162.465 286.131 165.487 289.13 169.215 289.13Z" fill="white"/>
<path d="M155.195 299.271C157.133 299.271 158.705 297.712 158.705 295.79C158.705 293.869 157.133 292.31 155.195 292.31C153.256 292.31 151.685 293.869 151.685 295.79C151.685 297.712 153.256 299.271 155.195 299.271Z" fill="white"/>
<path d="M142.135 256.23C143.775 253.19 146.185 250.96 148.975 249.19C151.775 247.43 155.045 246.27 158.575 245.92C162.105 245.6 165.945 246.36 169.035 248.33C169.785 248.86 170.515 249.41 171.185 249.98C171.795 250.65 172.355 251.35 172.865 252.06C173.905 253.46 174.455 255.22 174.775 256.9C174.785 256.96 174.745 257.02 174.685 257.03C174.675 257.03 174.655 257.03 174.645 257.03H174.635C171.075 256.32 168.645 255.46 166.175 255.37C163.795 255.17 161.675 255.12 159.325 255.23C154.615 255.59 149.515 256.87 143.255 257.71L143.165 257.72C142.605 257.79 142.095 257.4 142.015 256.84C141.995 256.63 142.045 256.41 142.135 256.23Z" fill="black"/>
<path d="M258.035 318.21C271.278 318.21 282.015 307.546 282.015 294.39C282.015 281.235 271.278 270.57 258.035 270.57C244.791 270.57 234.055 281.235 234.055 294.39C234.055 307.546 244.791 318.21 258.035 318.21Z" fill="#1C1505"/>
<path d="M268.695 289.92C272.423 289.92 275.445 286.921 275.445 283.22C275.445 279.52 272.423 276.52 268.695 276.52C264.967 276.52 261.945 279.52 261.945 283.22C261.945 286.921 264.967 289.92 268.695 289.92Z" fill="white"/>
<path d="M254.675 300.07C256.613 300.07 258.185 298.512 258.185 296.59C258.185 294.669 256.613 293.11 254.675 293.11C252.736 293.11 251.165 294.669 251.165 296.59C251.165 298.512 252.736 300.07 254.675 300.07Z" fill="white"/>
<path d="M241.615 257.03C243.255 253.99 245.665 251.76 248.455 249.99C251.255 248.23 254.525 247.07 258.055 246.72C261.585 246.4 265.425 247.16 268.515 249.13C269.265 249.66 269.995 250.21 270.665 250.78C271.275 251.45 271.835 252.15 272.345 252.86C273.385 254.26 273.935 256.02 274.255 257.7C274.265 257.76 274.225 257.82 274.165 257.83C274.155 257.83 274.135 257.83 274.125 257.83H274.115C270.555 257.12 268.125 256.26 265.655 256.17C263.275 255.97 261.155 255.92 258.805 256.03C254.095 256.39 248.995 257.67 242.735 258.51L242.645 258.52C242.085 258.59 241.575 258.2 241.495 257.64C241.475 257.42 241.515 257.21 241.615 257.03Z" fill="black"/>
</g>
<defs>
<clipPath id="clip0_2_281">
<rect width="423" height="647" fill="white"/>
</clipPath>
</defs>
</svg>
