<svg width="516" height="522" viewBox="0 0 516 522" fill="none" xmlns="http://www.w3.org/2000/svg">
<path d="M388.53 522H112.24C111.26 516.77 110.88 510.95 111.02 504.42C111.08 500.93 111.29 497.24 111.64 493.32C111.99 489.23 112.49 484.89 113.12 480.28C113.12 480.28 113.12 480.28 113.12 480.27C115.41 463.53 119.38 443.25 124.34 418.33C133.57 371.87 144.54 332.24 154.38 301.06C155.25 298.3 156.12 295.61 156.96 292.99C157.78 290.49 158.58 288.05 159.37 285.67C159.61 284.94 159.85 284.21 160.1 283.49C160.72 281.62 161.34 279.79 161.95 278C161.95 278 161.95 278 161.96 278C164.8 277.91 167.63 277.82 170.47 277.73C171.89 277.69 173.3 277.64 174.72 277.6C176.56 277.54 178.4 277.48 180.24 277.42C182.09 277.36 183.93 277.3 185.78 277.24C233.93 275.72 282.07 274.19 330.21 272.67C332.05 272.61 333.89 272.55 335.72 272.49C337.55 272.43 339.37 272.38 341.2 272.32C343.29 272.25 345.38 272.19 347.47 272.12C350.28 272.03 353.08 271.94 355.89 271.85H355.98V271.86C356.33 274.02 356.67 276.16 357.01 278.29C357.1 278.86 357.19 279.43 357.28 280C358.41 287.02 359.53 293.87 360.62 300.54C368.61 349.16 375.65 388.37 380.71 415.75C380.84 416.46 380.97 417.17 381.1 417.88C382.68 426.4 384.16 434.28 385.49 441.59C386.67 448.05 387.73 454.07 388.66 459.7C393.39 488.32 394.54 506.79 388.53 522Z" fill="#F7C600"/>
<path d="M396.23 473.11C395.6 468.39 394.83 463.38 393.94 458.03C392.99 452.3 391.9 446.18 390.71 439.63C389.84 434.91 388.92 429.96 387.96 424.76L386.1 414.76C378.44 373.31 371.02 330.5 364.02 287.27C363.62 284.85 363.23 282.43 362.84 280.01C362.5 277.91 362.17 275.82 361.83 273.72C361.79 273.46 361.75 273.21 361.71 272.95C361.61 272.3 361.5 271.65 361.4 271L360.78 267.08L360.64 266.23L353.61 266.45L341.27 266.84L335.8 267.02L330.3 267.19L185.08 271.78L179.55 271.96L174.05 272.13L163.97 272.45L157.99 272.64L157.49 274.11L156.77 276.23C156.38 277.38 155.99 278.53 155.61 279.68C154.52 282.88 153.46 286.09 152.42 289.31C151.52 292.02 150.65 294.74 149.79 297.47C148.9 300.26 148.02 303.06 147.16 305.86C135.9 342.34 126.44 379.68 118.97 417.26C112.88 447.88 108.08 472.05 106.29 491.53C105.92 495.44 105.68 499.16 105.59 502.71C105.48 506.09 105.5 509.31 105.66 512.38C105.83 515.76 106.17 518.96 106.69 522H117.77C116.24 514.67 116.05 505.92 116.94 495.15C117.28 491.11 117.76 486.79 118.39 482.15C119.04 477.31 119.84 472.12 120.78 466.54C123.04 453.19 126.08 437.65 129.71 419.39C136.99 382.76 146.17 346.36 157.1 310.78C158.44 306.39 159.82 302.01 161.22 297.65C162.29 294.3 163.39 290.95 164.5 287.62C164.55 287.44 164.61 287.26 164.68 287.08C165.09 285.83 165.5 284.59 165.92 283.35L168.62 283.26L175.55 283.04L177.8 282.97L181.09 282.87L186.66 282.69L329.9 278.16L335.43 277.98L340.48 277.82L340.93 277.81L349.66 277.53L351.32 277.48C351.46 278.35 351.6 279.22 351.74 280.09C351.87 280.9 352 281.72 352.13 282.53C353.11 288.62 354.1 294.7 355.1 300.77C357.07 312.79 359.08 324.77 361.11 336.69C363.6 351.34 366.14 365.89 368.7 380.32C370.89 392.56 373.09 404.71 375.31 416.74L375.9 419.91L377.17 426.75C378.23 432.47 379.24 437.87 380.17 442.99C387.33 482.33 390.24 504.72 382.55 522H394.43C399.04 508.95 398.99 493.82 396.23 473.11Z" fill="black"/>
<path d="M255.53 312C336.031 312 401.29 246.741 401.29 166.24C401.29 85.739 336.031 20.48 255.53 20.48C175.029 20.48 109.77 85.739 109.77 166.24C109.77 246.741 175.029 312 255.53 312Z" fill="#F7C600"/>
<path d="M255.53 15C172.13 15 104.29 82.85 104.29 166.24C104.29 211.36 124.16 251.94 155.61 279.68C157.08 280.97 158.58 282.25 160.1 283.49C161.6 284.71 163.13 285.91 164.68 287.08C169.01 290.34 173.52 293.38 178.19 296.16C180.35 297.46 182.54 298.7 184.77 299.88C186.95 301.04 189.16 302.15 191.4 303.2C210.88 312.36 232.62 317.48 255.53 317.48C280.75 317.48 304.56 311.27 325.49 300.31C327.79 299.1 330.06 297.84 332.29 296.52C334.54 295.19 336.75 293.8 338.92 292.36C343.21 289.52 347.34 286.47 351.3 283.22C351.58 282.99 351.85 282.76 352.13 282.53C353.79 281.15 355.41 279.74 357.01 278.29C357.22 278.1 357.43 277.91 357.64 277.72C357.81 277.56 357.98 277.4 358.15 277.24C359.4 276.09 360.62 274.92 361.83 273.72C361.98 273.58 362.13 273.43 362.28 273.28C389.75 245.88 406.77 208.01 406.77 166.24C406.77 82.85 338.93 15 255.53 15ZM340.96 277.46C340.8 277.58 340.64 277.7 340.48 277.82C338.71 279.17 336.92 280.47 335.09 281.74C333.09 283.12 331.06 284.45 328.99 285.72C307.61 298.91 282.45 306.53 255.53 306.53C231.02 306.53 207.95 300.21 187.88 289.11C185.73 287.93 183.62 286.69 181.54 285.39C180.28 284.6 179.03 283.8 177.8 282.97C176.95 282.41 176.1 281.83 175.26 281.24C173.64 280.1 172.04 278.93 170.47 277.73C168.25 276.04 166.09 274.27 163.97 272.45C134.14 246.7 115.24 208.64 115.24 166.24C115.24 88.89 178.18 25.96 255.53 25.96C332.88 25.96 395.81 88.88 395.81 166.24C395.81 205.46 379.64 240.97 353.61 266.45C351.62 268.41 349.57 270.3 347.47 272.12C345.35 273.97 343.18 275.74 340.96 277.46Z" fill="black"/>
<path d="M184.36 218.54C170.14 255.51 186.36 305.43 186.36 305.43C192.71 324.97 197.65 340.17 212.94 352.87C217.06 356.3 231.28 367.77 252.81 369.02C275.33 370.33 291.43 359.62 296.69 356.01C319.37 340.43 326.35 316.78 331.56 299.13C337.53 278.89 336.21 262.3 333.56 229.11C332.4 214.53 330.78 206.73 324.72 202.42C315.73 196.03 306.38 201.23 294.12 194.52C281.61 187.67 285.17 177.37 272.68 170.51C262.93 165.15 249.4 165.09 239.88 170.51C229.64 176.34 232.78 183.54 221.23 191.09C210.92 197.83 205.5 194.07 196.08 201.66C196.08 201.68 188.62 207.48 184.36 218.54Z" fill="#FF7E00"/>
<path d="M339.01 228.7C337.91 215 336.4 204.04 327.88 197.98C322.14 193.9 316.25 193.5 311.06 193.15C306.31 192.83 301.83 192.53 296.73 189.74C291.93 187.11 290.3 183.97 288.23 180C285.91 175.53 283 169.96 275.31 165.73C263.91 159.46 248.22 159.48 237.17 165.77C230.79 169.41 228.43 173.64 226.34 177.38C224.52 180.64 222.96 183.45 218.24 186.53C214.19 189.17 211.21 189.84 207.75 190.6C203.46 191.54 198.61 192.62 192.72 197.36C192.37 197.63 184 204.23 179.25 216.58C172.35 234.52 172.19 255.12 174.05 272.13C174.25 274 174.48 275.83 174.72 277.6C174.9 278.84 175.08 280.05 175.26 281.24C175.36 281.85 175.46 282.45 175.55 283.04C175.89 285.05 176.24 286.98 176.6 288.8C177.13 291.5 177.67 293.97 178.19 296.16C179.68 302.51 180.97 306.56 181.15 307.13C187.74 327.38 192.93 343.37 209.44 357.09C225.38 370.34 241.65 373.87 252.49 374.5C253.89 374.58 255.28 374.62 256.68 374.62C271.68 374.62 286.16 369.89 299.78 360.55C324.07 343.87 331.43 318.93 336.8 300.71C337.64 297.87 338.34 295.1 338.92 292.36C339.45 289.86 339.88 287.39 340.21 284.89C340.53 282.56 340.77 280.21 340.93 277.81C340.95 277.69 340.96 277.58 340.96 277.46C341.08 275.77 341.16 274.06 341.2 272.32C341.26 270.53 341.28 268.71 341.27 266.84C341.21 256.33 340.25 244.31 339.01 228.7ZM330.21 272.67C330.15 274.54 330.05 276.37 329.9 278.16C329.69 280.73 329.4 283.23 328.99 285.72C328.61 288.15 328.13 290.56 327.53 293C327.17 294.51 326.76 296.04 326.3 297.58C326.03 298.48 325.76 299.39 325.49 300.31C320.41 317.37 313.58 337.75 293.58 351.49C280.74 360.31 267.13 364.36 253.12 363.55C243.91 363.01 230.08 359.99 216.43 348.65C202.36 336.96 197.83 323.02 191.56 303.73C191.55 303.7 191.5 303.52 191.4 303.2C191.09 302.18 190.37 299.74 189.5 296.22C189 294.19 188.44 291.79 187.88 289.11C187.47 287.12 187.05 284.97 186.66 282.69C186.35 280.95 186.05 279.13 185.78 277.24C185.52 275.48 185.29 273.65 185.08 271.78C184.43 266.18 184.01 260.17 184.01 254.02C184.01 242.74 185.42 231 189.46 220.5C193.07 211.13 199.38 206.03 199.5 205.94C203.46 202.75 206.25 202.13 210.1 201.28C214.04 200.41 218.5 199.42 224.22 195.68C231.19 191.13 233.8 186.46 235.89 182.71C237.68 179.51 238.85 177.4 242.58 175.28C246.47 173.07 251.28 171.97 256.14 171.97C261.03 171.97 265.97 173.09 270.05 175.32C274.83 177.95 276.47 181.08 278.53 185.05C280.86 189.54 283.77 195.11 291.49 199.34C298.7 203.29 305.16 203.72 310.34 204.07C314.98 204.38 318.33 204.6 321.55 206.89C325.35 209.6 326.94 215.1 328.1 229.56C329.34 245.11 330.28 256.95 330.3 267.19C330.3 269.07 330.28 270.89 330.21 272.67Z" fill="black"/>
<path d="M220.344 257.238C223.86 256.74 225.633 248.733 224.304 239.355C222.975 229.977 219.048 222.779 215.532 223.277C212.015 223.776 210.242 231.782 211.571 241.16C212.9 250.538 216.828 257.736 220.344 257.238Z" fill="#C45D00"/>
<path d="M303.513 239.041C304.727 229.647 302.855 221.663 299.333 221.208C295.811 220.753 291.972 227.999 290.759 237.393C289.545 246.787 291.417 254.772 294.939 255.227C298.461 255.681 302.3 248.435 303.513 239.041Z" fill="#C45D00"/>
<path d="M310.38 158.68C323.221 158.68 333.63 148.342 333.63 135.59C333.63 122.838 323.221 112.5 310.38 112.5C297.539 112.5 287.13 122.838 287.13 135.59C287.13 148.342 297.539 158.68 310.38 158.68Z" fill="#1C1505"/>
<path d="M320.71 131.25C324.322 131.25 327.25 128.344 327.25 124.76C327.25 121.176 324.322 118.27 320.71 118.27C317.098 118.27 314.17 121.176 314.17 124.76C314.17 128.344 317.098 131.25 320.71 131.25Z" fill="white"/>
<path d="M307.12 141.1C308.998 141.1 310.52 139.587 310.52 137.72C310.52 135.853 308.998 134.34 307.12 134.34C305.242 134.34 303.72 135.853 303.72 137.72C303.72 139.587 305.242 141.1 307.12 141.1Z" fill="white"/>
<path d="M201.77 159.92C214.611 159.92 225.02 149.582 225.02 136.83C225.02 124.078 214.611 113.74 201.77 113.74C188.929 113.74 178.52 124.078 178.52 136.83C178.52 149.582 188.929 159.92 201.77 159.92Z" fill="#1C1505"/>
<path d="M212.1 132.5C215.712 132.5 218.64 129.594 218.64 126.01C218.64 122.426 215.712 119.52 212.1 119.52C208.488 119.52 205.56 122.426 205.56 126.01C205.56 129.594 208.488 132.5 212.1 132.5Z" fill="white"/>
<path d="M198.51 142.35C200.388 142.35 201.91 140.837 201.91 138.97C201.91 137.103 200.388 135.59 198.51 135.59C196.632 135.59 195.11 137.103 195.11 138.97C195.11 140.837 196.632 142.35 198.51 142.35Z" fill="white"/>
<path d="M118.39 482.15C116.17 485.96 113.91 489.68 111.64 493.32C109.63 496.52 107.61 499.65 105.59 502.71C101.09 509.5 96.55 515.94 92.06 522H30.76C31.46 501.27 33.86 475.35 39.45 444.05C53.25 366.79 123.03 314.84 149.79 297.47C152.75 295.55 155.19 294.05 156.96 292.99C159.08 291.72 160.25 291.08 160.25 291.08C160.61 293.28 160.93 295.47 161.22 297.65C170.66 368.19 147.4 432.38 118.39 482.15Z" fill="#F7C600"/>
<path d="M165.66 290.2C165.51 289.24 165.1 288.35 164.5 287.62C164.01 287.01 163.39 286.5 162.66 286.15C161.63 285.65 160.48 285.48 159.37 285.67C158.77 285.76 158.17 285.97 157.62 286.27C157.12 286.55 155.29 287.57 152.42 289.31C130.69 302.48 49.45 356.96 34.07 443.08C28.41 474.78 25.96 501.01 25.25 522H36.27C36.96 501.52 39.32 475.9 44.84 445.01C57.32 375.14 118 325.9 147.16 305.86C149.86 304.01 152.29 302.41 154.38 301.06C154.94 300.7 155.48 300.36 156 300.03C156.45 303.63 156.82 307.22 157.1 310.78C161.81 370.37 143.03 424.67 120.78 466.54C118.27 471.28 115.7 475.86 113.12 480.27C113.12 480.28 113.12 480.28 113.12 480.28C110.85 484.17 108.57 487.92 106.29 491.53C105.26 493.17 104.23 494.77 103.21 496.35C97.25 505.53 91.18 514.1 85.21 522H98.86C101.12 518.89 103.39 515.68 105.66 512.38C107.45 509.79 109.24 507.13 111.02 504.42C111.42 503.81 111.83 503.19 112.23 502.57C113.8 500.16 115.37 497.69 116.94 495.15C147.64 445.71 178.94 372.14 165.66 290.2Z" fill="black"/>
<path d="M487.47 522H436.77C422.75 504.48 407.48 482.86 393.94 458.03C391.04 452.7 388.21 447.21 385.49 441.59C382.1 434.57 378.88 427.34 375.9 419.91C361.53 384.17 352.46 343.81 355.1 300.77C355.52 293.91 356.24 286.99 357.28 280C357.4 279.24 357.51 278.48 357.64 277.72C357.67 277.48 357.71 277.25 357.75 277.01C357.75 277.01 357.89 277.08 358.15 277.24C358.85 277.63 360.47 278.56 362.84 280.01C383.88 292.91 463.69 346.77 478.55 429.98C485.49 468.81 487.51 499.37 487.47 522Z" fill="#F7C600"/>
<path d="M483.93 429.01C467.6 337.59 377.06 281.83 362.28 273.28C362.07 273.16 361.88 273.05 361.71 272.95C361.04 272.57 360.59 272.32 360.38 272.2C359.04 271.46 357.47 271.33 356.04 271.8C355.99 271.81 355.94 271.83 355.89 271.85C355.7 271.91 355.52 271.99 355.34 272.08C354.13 272.67 353.19 273.68 352.68 274.9C352.53 275.29 352.41 275.7 352.34 276.13C352.13 277.45 351.92 278.77 351.74 280.09C351.58 281.13 351.44 282.18 351.3 283.22C343.36 343.42 359.07 398.81 380.17 442.99C382.92 448.76 385.77 454.33 388.66 459.7C391.16 464.33 393.69 468.8 396.23 473.11C399.41 478.5 402.61 483.63 405.77 488.5C413.78 500.82 421.93 512.03 429.75 522H443.83C434.48 510.56 424.48 497.21 414.78 482.28C406.67 469.78 398.34 455.45 390.71 439.63C387.34 432.66 384.11 425.4 381.1 417.88C376.33 405.98 372.1 393.43 368.7 380.32C365.09 366.35 362.43 351.77 361.11 336.69C360.08 324.91 359.85 312.84 360.62 300.54C360.92 295.72 361.37 290.86 361.99 285.97C362.63 286.37 363.3 286.8 364.02 287.27C389.15 303.47 459.59 355.04 473.15 430.94C480.01 469.37 481.99 499.65 481.92 522H492.97C493.01 499.09 490.93 468.23 483.93 429.01Z" fill="black"/>
</svg>
