<svg width="364" height="453" viewBox="0 0 364 453" fill="none" xmlns="http://www.w3.org/2000/svg">
<g clip-path="url(#clip0_2_214)">
<path d="M321.71 453H42.4C32.03 423.49 38.65 384.58 46.84 336.46C51.37 309.85 57.64 287.72 63.05 271.4C63.57 269.84 64.08 268.33 64.58 266.88V266.87C67.19 266.89 69.77 266.9 72.31 266.92C211.35 267.88 251.32 269.5 282.74 271.69C285.27 271.86 287.74 272.04 290.21 272.23H290.25C290.81 273.59 291.38 275.02 291.97 276.51C297.56 290.59 304.49 310.19 310.35 334.06C323.25 386.57 332.46 424.11 321.71 453Z" fill="#8ECE17"/>
<path d="M314.84 332.93C309.9 312.82 303.52 292.92 295.85 273.73C295.42 272.63 294.98 271.54 294.53 270.45L294.11 269.41L294.09 269.39L293.45 267.81L290.6 267.6C290.05 267.56 289.49 267.52 288.94 267.47C255.74 265.06 218.57 263.27 66.21 262.25C65.68 262.25 65.15 262.24 64.62 262.24L61.3 262.22L60.82 263.63L60.77 263.76L60.22 265.36C59.88 266.35 59.55 267.33 59.22 268.32C51.85 290.26 46.17 312.9 42.29 335.68C34.24 383 27.52 422.45 37.54 453H47.36C36.59 424.19 43.29 384.85 51.39 337.23C55 315.98 60.23 294.85 66.95 274.33C67.25 273.38 67.56 272.44 67.88 271.5C68.84 271.51 69.81 271.51 70.76 271.52H70.77C73.59 271.54 76.36 271.56 79.09 271.58C202.74 272.47 245.61 273.93 275.88 275.85C278.66 276.02 281.33 276.2 283.96 276.39C284 276.39 284.04 276.4 284.09 276.4C285.08 276.47 286.07 276.54 287.05 276.61C287.39 277.45 287.72 278.29 288.05 279.14C295.22 297.32 301.21 316.14 305.87 335.15C318.93 388.37 327.99 425.27 316.75 453H326.64C337.01 423.23 327.83 385.86 314.84 332.93Z" fill="black"/>
<path d="M325.62 130.54C330.78 120.91 333.71 109.91 333.71 98.22C333.71 60.34 303 29.63 265.12 29.63C239.88 29.63 217.84 43.27 205.93 63.58C197.8 62.62 189.48 62.12 180.99 62.12C177.06 62.12 173.18 62.26 169.32 62.47C158.24 39.48 134.72 23.61 107.5 23.61C69.62 23.61 38.91 54.32 38.91 92.2C38.91 101.87 40.92 111.06 44.53 119.41C29.23 137.97 20.36 159.88 20.36 183.35C20.36 250.3 92.28 304.58 180.99 304.58C269.7 304.58 341.62 250.3 341.62 183.35C341.63 164.41 335.88 146.5 325.62 130.54Z" fill="#8ECE17"/>
<path d="M25.7 209.32C57.42 197.49 113.52 181.2 184.52 184.82C252.75 188.3 305.16 208.66 335.31 223.06C327.35 236.44 313.32 255.78 290.24 272.23C267.71 288.28 246.79 294.3 234.86 297.59C227.75 299.55 206.41 305 178.14 304.56C168.14 304.41 149.7 303.4 127.6 297.51C120.3 295.56 108.62 292.39 94.32 285.43C80.91 278.91 69.8 271.1 64.58 266.87C41.39 248.12 27.53 213.95 25.7 209.32Z" fill="#FFFFBA"/>
<path d="M264.02 144.54C287.945 144.54 307.34 125.145 307.34 101.22C307.34 77.295 287.945 57.9 264.02 57.9C240.095 57.9 220.7 77.295 220.7 101.22C220.7 125.145 240.095 144.54 264.02 144.54Z" fill="white"/>
<path d="M264.02 55.61C238.87 55.61 218.4 76.08 218.4 101.23C218.4 126.38 238.86 146.85 264.02 146.85C289.18 146.85 309.64 126.38 309.64 101.23C309.64 76.08 289.17 55.61 264.02 55.61ZM264.02 142.23C241.41 142.23 223.01 123.83 223.01 101.22C223.01 78.61 241.41 60.21 264.02 60.21C286.64 60.21 305.03 78.61 305.03 101.22C305.03 123.83 286.63 142.23 264.02 142.23Z" fill="black"/>
<path d="M105.2 135.52C129.125 135.52 148.52 116.125 148.52 92.2C148.52 68.275 129.125 48.88 105.2 48.88C81.275 48.88 61.88 68.275 61.88 92.2C61.88 116.125 81.275 135.52 105.2 135.52Z" fill="white"/>
<path d="M105.2 46.58C80.05 46.58 59.58 67.05 59.58 92.2C59.58 117.35 80.04 137.82 105.2 137.82C130.35 137.82 150.82 117.35 150.82 92.2C150.82 67.05 130.35 46.58 105.2 46.58ZM105.2 133.21C82.59 133.21 64.19 114.81 64.19 92.2C64.19 69.59 82.59 51.19 105.2 51.19C127.81 51.19 146.21 69.59 146.21 92.2C146.21 114.81 127.81 133.21 105.2 133.21Z" fill="black"/>
<path d="M262.86 133.71C278.722 133.71 291.58 120.937 291.58 105.18C291.58 89.4233 278.722 76.65 262.86 76.65C246.998 76.65 234.14 89.4233 234.14 105.18C234.14 120.937 246.998 133.71 262.86 133.71Z" fill="#1C1505"/>
<path d="M275.63 99.83C280.093 99.83 283.71 96.2393 283.71 91.81C283.71 87.3807 280.093 83.79 275.63 83.79C271.168 83.79 267.55 87.3807 267.55 91.81C267.55 96.2393 271.168 99.83 275.63 99.83Z" fill="white"/>
<path d="M258.83 111.99C261.15 111.99 263.03 110.123 263.03 107.82C263.03 105.517 261.15 103.65 258.83 103.65C256.51 103.65 254.63 105.517 254.63 107.82C254.63 110.123 256.51 111.99 258.83 111.99Z" fill="white"/>
<path d="M108.08 126.69C123.942 126.69 136.8 113.917 136.8 98.16C136.8 82.4033 123.942 69.63 108.08 69.63C92.2184 69.63 79.36 82.4033 79.36 98.16C79.36 113.917 92.2184 126.69 108.08 126.69Z" fill="#1C1505"/>
<path d="M120.84 92.81C125.302 92.81 128.92 89.2193 128.92 84.79C128.92 80.3607 125.302 76.77 120.84 76.77C116.378 76.77 112.76 80.3607 112.76 84.79C112.76 89.2193 116.378 92.81 120.84 92.81Z" fill="white"/>
<path d="M104.05 104.97C106.37 104.97 108.25 103.103 108.25 100.8C108.25 98.497 106.37 96.63 104.05 96.63C101.73 96.63 99.85 98.497 99.85 100.8C99.85 103.103 101.73 104.97 104.05 104.97Z" fill="white"/>
<path d="M164.16 161.82C166.816 161.82 168.97 159.666 168.97 157.01C168.97 154.353 166.816 152.2 164.16 152.2C161.503 152.2 159.35 154.353 159.35 157.01C159.35 159.666 161.503 161.82 164.16 161.82Z" fill="#6B9312"/>
<path d="M202.28 162.15C204.936 162.15 207.09 159.996 207.09 157.34C207.09 154.683 204.936 152.53 202.28 152.53C199.623 152.53 197.47 154.683 197.47 157.34C197.47 159.996 199.623 162.15 202.28 162.15Z" fill="#6B9312"/>
<path d="M183.75 255.44C162.63 255.44 144.33 251.95 129.7 247.58C93.13 236.67 71.57 218.56 70.67 217.8C69.22 216.56 69.04 214.38 70.27 212.93C71.51 211.47 73.69 211.3 75.14 212.53C75.35 212.71 96.7 230.59 131.97 241.04C164.42 250.66 215.69 255.8 275.7 225.61C277.4 224.75 279.48 225.44 280.34 227.14C281.2 228.85 280.51 230.93 278.8 231.79C243.63 249.5 211.3 255.44 183.75 255.44Z" fill="black"/>
<path d="M330.92 130.3C335.78 120.36 338.33 109.32 338.33 98.21C338.33 57.85 305.49 25.01 265.13 25.01C240.28 25.01 216.95 37.84 203.54 58.67C196.07 57.89 188.5 57.5 181 57.5C178.22 57.5 175.33 57.57 172.08 57.71C159.43 34.09 134.42 18.99 107.5 18.99C67.14 18.99 34.3 51.83 34.3 92.19C34.3 101.32 35.96 110.2 39.23 118.63C23.86 138.14 15.75 160.46 15.75 183.34C15.75 216.07 32.24 245.92 59.22 268.32C60.47 269.36 61.75 270.38 63.05 271.4C64.33 272.39 65.63 273.36 66.95 274.33C96.63 295.91 136.82 309.18 181 309.18C221.8 309.18 259.19 297.87 288.05 279.14C289.37 278.28 290.68 277.4 291.97 276.51C293.28 275.6 294.58 274.68 295.85 273.73C326.91 250.85 346.25 218.78 346.25 183.34C346.25 164.78 341.09 146.95 330.92 130.3ZM288.94 267.47C286.93 268.92 284.86 270.33 282.74 271.69C280.51 273.13 278.22 274.52 275.88 275.85C249.58 290.97 216.67 299.96 181 299.96C142.08 299.96 106.45 289.25 79.09 271.58C76.77 270.08 74.51 268.53 72.31 266.92C70.22 265.41 68.18 263.85 66.21 262.25C47.82 247.31 34.56 228.79 28.57 208.26C26.22 200.23 24.98 191.9 24.98 183.35C24.98 161.78 32.98 140.69 48.1 122.34L49.89 120.16L48.77 117.57C45.29 109.53 43.53 100.99 43.53 92.19C43.53 56.92 72.23 28.22 107.5 28.22C131.93 28.22 154.57 42.45 165.18 64.5L166.51 67.27L169.58 67.1C173.94 66.86 177.57 66.75 181 66.75C189.13 66.75 197.34 67.23 205.4 68.18L208.39 68.53L209.91 65.93C221.37 46.39 242.52 34.26 265.12 34.26C300.39 34.26 329.09 62.96 329.09 98.23C329.09 108.73 326.48 119.15 321.55 128.37L320.27 130.76L321.74 133.04C331.88 148.82 337.02 165.75 337.02 183.35C337.02 196.2 334.22 208.57 329.06 220.14C320.96 238.31 307.04 254.5 288.94 267.47Z" fill="black"/>
</g>
<defs>
<clipPath id="clip0_2_214">
<rect width="364" height="453" fill="white"/>
</clipPath>
</defs>
</svg>
