<svg width="436" height="604" viewBox="0 0 436 604" fill="none" xmlns="http://www.w3.org/2000/svg">
<path d="M334.57 604H135.25C136.78 584.43 140.47 556.98 147.17 517.6C153.24 481.94 159.17 451.84 163.85 429.39C164.21 427.68 164.56 426.01 164.9 424.39V424.38C166.81 423.68 168.69 422.99 170.54 422.33C175.69 420.48 180.6 418.78 185.28 417.22C189.79 415.71 194.09 414.34 198.19 413.1C205.82 410.77 212.75 408.87 219.06 407.35C221.71 406.7 224.25 406.13 226.69 405.62C267.01 397.17 278.67 405.89 285.55 415.11C286.52 416.41 287.4 417.73 288.25 419.01C288.25 419.01 288.25 419.02 288.26 419.02C289.15 420.37 290.01 421.7 290.82 423.03C308.44 451.51 309.55 476.32 316.11 517.6C322.56 558.19 329.56 584.99 334.57 604Z" fill="#AEA7A1"/>
<path d="M339.47 603.8C334.36 584.45 327.37 557.94 320.84 516.87C319.8 510.31 318.89 504.17 318.04 498.36C313.52 467.63 310.19 445.03 294.57 419.99C293.82 418.79 293.04 417.59 292.24 416.38C292.15 416.25 292.06 416.11 291.97 415.98C291.14 414.73 290.25 413.4 289.24 412.06C284.55 405.83 277.32 399.22 261.71 397.74C252.48 396.86 240.85 397.86 226.67 400.77C224.21 401.27 221.66 401.84 219.04 402.46C210.2 404.55 200.46 407.31 189.8 410.73C186.2 411.88 182.5 413.11 178.68 414.42C174.46 415.87 170.1 417.41 165.61 419.05C164.83 419.33 164.05 419.62 163.26 419.91C162.33 420.25 161.55 420.87 161.01 421.66C160.64 422.18 160.37 422.77 160.24 423.41C160.02 424.43 159.81 425.46 159.6 426.49C153.37 456.23 147.61 486.6 142.47 516.81C135.74 556.32 132.03 584.06 130.5 604H140.06C141.58 584.78 145.21 557.6 151.88 518.4C156.78 489.54 162.26 460.53 168.18 432.06C168.46 430.69 168.74 429.32 169.03 427.95C169.35 427.83 169.67 427.72 169.98 427.61C172 426.87 173.97 426.16 175.91 425.48C181.94 423.35 187.61 421.43 192.95 419.72C200.1 417.42 206.66 415.48 212.67 413.86C214.82 413.28 216.91 412.74 218.92 412.24C221.64 411.56 224.24 410.96 226.72 410.42C242.71 406.98 253.89 406.34 261.93 407.35C265.34 407.77 268.19 408.5 270.59 409.43C276.04 411.55 279.26 414.74 281.73 418C282.66 419.23 283.49 420.47 284.28 421.66C284.34 421.74 284.39 421.83 284.44 421.91C285.34 423.26 286.19 424.59 286.99 425.92C301.1 448.88 304.12 469.47 308.58 499.74C309.44 505.58 310.35 511.76 311.4 518.36C317.75 558.34 324.54 584.65 329.64 604H339.52C339.51 603.93 339.49 603.87 339.47 603.8Z" fill="black"/>
<path d="M401.33 192.67C372.42 164.76 301.41 180.77 301.41 180.77C301.41 180.77 301.42 180.79 301.43 180.82C280.28 158.7 252.88 145.33 222.91 145.33C193.09 145.33 165.8 158.57 144.7 180.5C135.05 178.52 72.72 166.97 46.09 192.68C46.09 192.68 111.2 189.61 120.98 213.68C108.84 236.83 101.78 264.35 101.78 293.92C101.78 365.8 143.38 425.75 198.66 439.53C198.71 447.92 199.75 459.36 203.95 472.15C211.13 494.02 223.8 508.41 231.33 515.75C232.41 499.55 234.89 480.97 239.87 460.8C241.69 453.42 243.7 446.43 245.82 439.83C301.76 426.69 344.04 366.38 344.04 293.93C344.04 265.14 337.34 238.27 325.79 215.51C325.79 215.5 325.79 215.49 325.8 215.49C332.98 189.43 401.33 192.67 401.33 192.67Z" fill="#AEA7A1"/>
<path d="M404.64 189.21C378.97 164.43 324.49 171.64 306.31 174.91C305 175.14 303.87 175.36 302.96 175.54C302.49 175.07 302.02 174.61 301.55 174.16C300.06 172.69 298.55 171.28 297.01 169.93C286.71 160.78 275.37 153.64 263.4 148.69C261.92 148.07 260.43 147.49 258.93 146.96C257.43 146.4 255.93 145.89 254.41 145.42C244.19 142.19 233.61 140.53 222.9 140.53C211.63 140.53 200.48 142.38 189.76 145.95C188.25 146.45 186.75 146.98 185.26 147.56C183.77 148.12 182.29 148.73 180.82 149.37C168.77 154.56 157.37 162 147.08 171.47C145.73 172.71 144.4 173.98 143.09 175.29C142.9 175.25 142.7 175.22 142.49 175.17C141.11 174.92 139.5 174.64 137.67 174.35C116.38 170.89 66.87 165.95 42.77 189.22C41.34 190.6 40.91 192.73 41.7 194.55C42.49 196.38 44.32 197.52 46.31 197.43C69.2 196.37 107.08 199.91 115.62 213.64C103.43 237.78 97 265.48 97 293.91C97 349.48 121.81 399.57 159.6 426.49C161 427.49 162.41 428.45 163.85 429.39C165.27 430.31 166.72 431.21 168.18 432.06C176.3 436.87 184.93 440.63 193.96 443.22C194.36 453.61 196.19 463.83 199.41 473.64C205 490.65 214.88 506.39 228 519.17C228.9 520.05 230.11 520.52 231.33 520.52C231.9 520.52 232.48 520.41 233.03 520.18C234.77 519.51 235.96 517.9 236.09 516.04C237.31 497.79 240.14 479.58 244.5 461.91C245.99 455.88 247.69 449.8 249.56 443.78C263.02 440.25 275.61 434.14 286.99 425.92C288.28 424.99 289.56 424.03 290.82 423.03C292.09 422.06 293.34 421.04 294.57 419.99C327.64 392.04 348.81 345.45 348.81 293.89C348.81 266.08 342.64 238.9 330.95 215.14C338.3 198.38 384.86 196.66 401.1 197.42C403.12 197.51 404.92 196.36 405.71 194.54C406.49 192.71 406.07 190.59 404.64 189.21ZM321.21 214.12C320.86 215.28 320.97 216.55 321.53 217.65C333.14 240.51 339.27 266.88 339.27 293.91C339.27 342.23 319.76 385.85 289.24 412.06C288.03 413.11 286.8 414.13 285.55 415.11C284.3 416.11 283.02 417.07 281.73 418C270.53 426.13 258.07 432.02 244.73 435.16C243.09 435.54 241.78 436.75 241.27 438.35C239.01 445.4 236.98 452.56 235.23 459.64C231.61 474.34 229.01 489.41 227.48 504.57C219.01 494.48 212.52 482.92 208.49 470.64C205.2 460.63 203.5 450.15 203.44 439.49C203.43 437.3 201.94 435.41 199.82 434.88C191.46 432.8 183.46 429.62 175.91 425.48C174.09 424.49 172.3 423.44 170.54 422.33C168.87 421.29 167.23 420.2 165.61 419.05C130 394.05 106.56 346.64 106.56 293.91C106.56 266.15 113.01 239.17 125.22 215.89C125.87 214.64 125.94 213.17 125.41 211.87C117.64 192.74 83.15 188.57 62.02 187.85C87.26 176.65 125.9 181.97 139.47 184.37C141.49 184.73 142.96 185.02 143.74 185.18C145.35 185.5 147 184.99 148.14 183.81C149.43 182.46 150.75 181.16 152.09 179.89C154.42 177.67 156.82 175.57 159.27 173.6C165.79 168.32 172.71 163.88 179.91 160.34C181.88 159.36 183.88 158.46 185.89 157.62C187.59 156.91 189.31 156.25 191.04 155.65C201.34 152 212.06 150.11 222.91 150.11C233.1 150.11 243.19 151.78 252.91 155C254.61 155.56 256.29 156.17 257.96 156.82C259.86 157.57 261.74 158.37 263.6 159.24C271.9 163.07 279.85 168.09 287.28 174.2C289.58 176.08 291.83 178.08 294.03 180.18C295.37 181.46 296.68 182.78 297.98 184.13C298.71 184.9 299.65 185.36 300.64 185.52H300.67C301.42 185.64 302.2 185.58 302.94 185.33C308.23 184.22 355.95 174.75 385.41 187.85C363.45 188.58 327.12 193.04 321.21 214.12Z" fill="black"/>
<path d="M161.03 313.2C174.114 313.2 184.72 302.665 184.72 289.67C184.72 276.675 174.114 266.14 161.03 266.14C147.946 266.14 137.34 276.675 137.34 289.67C137.34 302.665 147.946 313.2 161.03 313.2Z" fill="#1C1505"/>
<path d="M171.56 285.26C175.238 285.26 178.22 282.296 178.22 278.64C178.22 274.984 175.238 272.02 171.56 272.02C167.882 272.02 164.9 274.984 164.9 278.64C164.9 282.296 167.882 285.26 171.56 285.26Z" fill="white"/>
<path d="M157.71 295.29C159.626 295.29 161.18 293.75 161.18 291.85C161.18 289.95 159.626 288.41 157.71 288.41C155.794 288.41 154.24 289.95 154.24 291.85C154.24 293.75 155.794 295.29 157.71 295.29Z" fill="white"/>
<path d="M144.81 252.76C146.43 249.76 148.81 247.56 151.57 245.81C154.33 244.08 157.57 242.93 161.05 242.58C164.54 242.26 168.34 243.02 171.39 244.96C172.13 245.49 172.85 246.02 173.52 246.59C174.13 247.25 174.68 247.94 175.18 248.65C176.21 250.03 176.75 251.77 177.06 253.43C177.07 253.49 177.03 253.55 176.97 253.56C176.96 253.56 176.94 253.56 176.93 253.56H176.92C173.4 252.85 171 252.01 168.57 251.92C166.22 251.72 164.13 251.67 161.81 251.79C157.16 252.15 152.12 253.41 145.93 254.24L145.84 254.25C145.29 254.32 144.78 253.94 144.71 253.38C144.67 253.15 144.71 252.94 144.81 252.76Z" fill="black"/>
<path d="M277.72 313.2C290.804 313.2 301.41 302.665 301.41 289.67C301.41 276.675 290.804 266.14 277.72 266.14C264.636 266.14 254.03 276.675 254.03 289.67C254.03 302.665 264.636 313.2 277.72 313.2Z" fill="#1C1505"/>
<path d="M288.25 285.26C291.928 285.26 294.91 282.296 294.91 278.64C294.91 274.984 291.928 272.02 288.25 272.02C284.572 272.02 281.59 274.984 281.59 278.64C281.59 282.296 284.572 285.26 288.25 285.26Z" fill="white"/>
<path d="M274.4 295.29C276.316 295.29 277.87 293.75 277.87 291.85C277.87 289.95 276.316 288.41 274.4 288.41C272.484 288.41 270.93 289.95 270.93 291.85C270.93 293.75 272.484 295.29 274.4 295.29Z" fill="white"/>
<path d="M261.5 252.76C263.12 249.76 265.5 247.56 268.26 245.81C271.02 244.08 274.26 242.93 277.74 242.58C281.23 242.26 285.03 243.02 288.08 244.96C288.82 245.49 289.54 246.02 290.21 246.59C290.82 247.25 291.37 247.94 291.87 248.65C292.9 250.03 293.44 251.77 293.75 253.43C293.76 253.49 293.72 253.55 293.66 253.56C293.65 253.56 293.63 253.56 293.62 253.56H293.61C290.09 252.85 287.69 252.01 285.26 251.92C282.91 251.72 280.82 251.67 278.5 251.79C273.85 252.15 268.81 253.41 262.62 254.24L262.53 254.25C261.98 254.32 261.47 253.94 261.4 253.38C261.36 253.15 261.4 252.94 261.5 252.76Z" fill="black"/>
<path d="M270.15 407.41C269.16 405.55 266.84 404.84 264.98 405.83C247.68 415.02 232.48 412.9 226.72 411.55L226.53 367.45C226.52 365.35 224.81 363.65 222.71 363.65C222.7 363.65 222.7 363.65 222.69 363.65C220.58 363.66 218.88 365.38 218.89 367.49L219.08 412.17C214.84 413.99 202.02 417.44 179.92 406.54C178.03 405.6 175.74 406.38 174.8 408.28C173.87 410.17 174.64 412.46 176.54 413.4C189.69 419.89 200.13 421.83 207.91 421.83C215.72 421.83 220.84 419.88 223.36 418.61C225.92 419.34 231.05 420.49 237.89 420.49C246.17 420.49 256.92 418.8 268.58 412.61C270.43 411.59 271.14 409.28 270.15 407.41Z" fill="black"/>
<path d="M242.93 361.62C242.46 362.34 240.62 363.51 236.94 365.82C229.88 370.26 226.81 371.71 222.75 371.7C222.63 371.7 222.54 371.7 222.5 371.7C221.54 371.66 219.45 371.16 211.09 366.92C203.68 363.17 203.62 363.21 202.58 361.61C202.38 361.31 199.94 357.4 203.55 355.73C207.01 354.13 211.91 356.49 222.44 356.19C232.95 355.89 236.9 353.29 240.77 354.65C244.39 355.94 244.35 359.41 242.93 361.62Z" fill="#F9A0AB"/>
<path d="M257.61 151.53C257.61 151.53 290.69 19.24 414.29 28.21C414.29 28.21 301.41 71.86 301.41 180.77C301.42 180.77 256.43 180.16 257.61 151.53Z" fill="#AB804B"/>
<path d="M419.03 27.51C418.69 25.3 416.88 23.61 414.65 23.45C348.65 18.66 308.14 53.55 285.78 83.66C266.93 109.05 257.68 134.84 254.41 145.42C253.7 147.71 253.27 149.28 253.09 149.99C253.04 150.18 253.01 150.31 252.99 150.37C252.91 150.68 252.86 151.01 252.85 151.33C252.8 152.58 252.82 153.81 252.91 155C253.4 161.13 255.81 166.51 260.09 171.04C272.28 183.91 296.1 185.36 300.64 185.52H300.67C301.04 185.53 301.27 185.54 301.36 185.54H301.42C302.67 185.54 303.88 185.05 304.78 184.17C305.69 183.27 306.2 182.05 306.2 180.77V179.82C306.21 178.17 306.25 176.54 306.31 174.91C307.89 133.73 326.19 97.61 360.77 67.46C388.04 43.68 415.75 32.78 416.03 32.67C418.12 31.86 419.36 29.72 419.03 27.51ZM297.01 169.93C296.88 171.83 296.78 173.75 296.72 175.67C296.54 175.65 296.35 175.63 296.15 175.62C293.7 175.36 290.6 174.92 287.28 174.2C280.17 172.65 272.03 169.78 267 164.46C265.5 162.86 264.37 161.13 263.6 159.24C262.87 157.45 262.47 155.52 262.39 153.42C262.37 153.03 262.36 152.63 262.37 152.22C262.54 151.6 262.87 150.4 263.4 148.69C266.38 139.07 275.39 113.58 293.62 89.1C319.82 53.93 353.48 35.04 393.89 32.77C383.14 38.69 368.98 47.65 354.72 60.04C319.73 90.45 299.93 128.26 297.01 169.93Z" fill="black"/>
<path d="M186.39 151.53C186.39 151.53 153.31 19.24 29.71 28.21C29.71 28.21 142.59 71.86 142.59 180.77C142.58 180.77 187.57 180.16 186.39 151.53Z" fill="#AB804B"/>
<path d="M191.16 151.32C191.15 151.06 191.12 150.79 191.06 150.54C191.05 150.48 191.04 150.42 191.02 150.36C190.95 150.08 190.55 148.52 189.76 145.95C186.65 135.74 177.41 109.49 158.23 83.65C135.87 53.54 95.37 18.66 29.36 23.44C27.13 23.61 25.31 25.29 24.98 27.5C24.65 29.71 25.9 31.85 27.98 32.66C28.26 32.77 55.97 43.67 83.25 67.45C117.67 97.45 135.96 133.4 137.67 174.35C137.74 175.97 137.79 177.59 137.8 179.23C137.81 179.74 137.81 180.25 137.81 180.76C137.81 182.04 138.32 183.26 139.23 184.16C139.31 184.24 139.38 184.31 139.47 184.37C140.33 185.13 141.44 185.54 142.58 185.54C142.61 185.54 142.63 185.54 142.65 185.53C143.79 185.52 170.7 185 183.92 171.03C188.05 166.66 190.44 161.51 191.04 155.65C191.18 154.25 191.22 152.8 191.16 151.32ZM179.91 160.34C179.18 161.81 178.21 163.18 177 164.46C172.56 169.16 165.7 171.94 159.27 173.6C155.91 174.46 152.66 175.01 149.94 175.36C148.98 175.49 148.09 175.59 147.28 175.67C147.23 174.27 147.17 172.87 147.08 171.47C144.56 129.19 124.7 90.82 89.28 60.04C75.02 47.64 60.86 38.69 50.11 32.77C90.51 35.05 124.18 53.94 150.39 89.1C169.07 114.18 178.07 140.32 180.82 149.37C181.22 150.72 181.5 151.69 181.64 152.22C181.65 152.91 181.63 153.58 181.58 154.23C181.4 156.44 180.85 158.47 179.91 160.34Z" fill="black"/>
</svg>
