<svg width="379" height="509" viewBox="0 0 379 509" fill="none" xmlns="http://www.w3.org/2000/svg">
<g clip-path="url(#clip0_2_539)">
<path d="M324.37 509H49.38C50.66 488.26 56.1 460.97 63.58 423.37C71.99 381.11 82.52 346.06 91.37 320.25C91.84 318.88 92.3 317.54 92.76 316.23C94.86 315.89 96.94 315.56 99 315.23C125.47 311.06 148.2 308.22 167.81 306.43C187.71 304.6 204.38 303.85 218.46 303.86C255.97 303.89 275.11 309.32 287.71 314.3C289.37 314.96 290.91 315.6 292.37 316.23C292.82 317.55 293.27 318.89 293.72 320.28C301.3 343.22 310.24 375.37 315.84 414.48C321.67 455.15 325.97 485.18 324.37 509Z" fill="#F7BCBF"/>
<path d="M320.05 413.88C315.4 381.34 307.77 349.03 297.38 317.81C297.06 316.83 296.73 315.85 296.4 314.87C296.27 314.49 296.1 314.13 295.87 313.81C295.42 313.16 294.79 312.64 294.05 312.32C293.39 312.04 292.71 311.75 292 311.44C281.12 306.84 263.26 300.19 223.35 299.68C218.73 299.62 213.81 299.64 208.58 299.77C199.2 299.98 188.8 300.5 177.24 301.39C172.37 301.77 167.3 302.21 162.01 302.73C142.35 304.65 119.71 307.58 93.58 311.79L92.08 312.03C90.91 312.22 89.88 312.89 89.23 313.85C89.03 314.15 88.86 314.48 88.74 314.83C88.39 315.83 88.05 316.83 87.71 317.83C75.97 351.91 66.45 387.12 59.4 422.55C51.89 460.31 46.41 487.85 45.13 509H53.64C54.92 488.66 60.31 461.6 67.75 424.2C74.6 389.82 83.79 355.65 95.1 322.53C95.38 321.69 95.66 320.86 95.95 320.03C96.75 319.9 97.55 319.77 98.35 319.65C100.6 319.29 102.83 318.94 105.03 318.6C132.69 314.35 156.12 311.61 176.03 310.01C189.05 308.95 200.57 308.38 210.78 308.19C250.98 307.45 271.03 312.55 283.12 317.06C284.91 317.72 286.52 318.38 287.99 319C288.31 319.13 288.62 319.26 288.93 319.39C289.29 320.46 289.64 321.53 289.99 322.61C299.86 352.69 307.13 383.77 311.62 415.09C317.5 456.11 321.75 485.79 320.13 509H328.7C330.24 485 325.94 454.97 320.05 413.88Z" fill="black"/>
<path d="M321.05 142.37C321.71 141.84 322.36 141.32 322.99 140.8C353.43 116.11 354.16 73.27 354.08 63.39C353.89 39.39 347.4 21.26 347.4 21.26C323.36 33.19 305.2 46.53 292.04 57.87C279.22 68.92 274.85 74.88 272.88 78.56C250.83 60.2 223.48 48.04 191.1 48.03C158.8 48.02 131.3 60.12 109.09 78.48C107.1 74.79 102.7 68.83 89.97 57.87C76.8 46.53 58.64 33.19 34.6 21.26C34.6 21.26 28.11 39.38 27.92 63.39C27.84 73.27 28.56 116.11 59.01 140.8C59.59 141.27 60.18 141.74 60.77 142.22C52.34 160.04 46.82 178.25 44.41 194.72C42.54 207.44 36.85 246.23 59.13 282.23C95.3 340.68 173.89 341.28 191.1 341.41C208.45 341.54 287.41 342.14 323.62 284.46C346.35 248.25 340 208.57 337.79 194.72C335.19 178.49 329.57 160.28 321.05 142.37Z" fill="#F9C2C3"/>
<path d="M326.33 143.58C355.61 119.29 358.48 79.44 358.35 63.35C358.15 38.9 351.69 20.59 351.42 19.82C351.01 18.67 350.13 17.75 349 17.3C347.87 16.85 346.6 16.9 345.51 17.44C325.04 27.6 306.11 40.12 289.26 54.64C279.66 62.91 274.67 68.43 271.85 72.26C247.67 53.36 220.53 43.78 191.1 43.77C161.72 43.82 134.42 53.32 110.12 72.2C107.3 68.39 102.32 62.88 92.75 54.64C75.9 40.12 56.97 27.6 36.5 17.44C35.41 16.9 34.14 16.84 33.01 17.3C31.88 17.76 31 18.67 30.59 19.82C30.32 20.59 23.86 38.9 23.66 63.35C23.53 79.42 26.4 119.15 55.5 143.45C47.87 160.25 42.59 177.7 40.18 194.11C38.26 207.23 32.4 247.15 55.5 284.48C63.62 297.61 74.47 308.78 87.71 317.83C88.91 318.66 90.13 319.47 91.37 320.25C92.59 321.03 93.84 321.79 95.1 322.53C120.29 337.38 152.93 345.38 191.06 345.67C191.79 345.68 192.5 345.68 193.22 345.68C231.9 345.68 264.84 337.7 289.99 322.61C291.26 321.86 292.5 321.08 293.72 320.28C294.96 319.48 296.18 318.66 297.38 317.81C309.55 309.29 319.6 298.88 327.23 286.72C350.81 249.16 344.18 207.68 342 194.05C339.39 177.73 333.99 160.34 326.33 143.58ZM292 311.44C290.6 312.43 289.17 313.38 287.71 314.3C286.21 315.25 284.68 316.17 283.12 317.06C259.84 330.33 229.57 337.18 193.34 337.18C192.61 337.18 191.87 337.18 191.13 337.17C156.9 336.91 127.92 330.59 105.03 318.6C102.97 317.53 100.96 316.4 99 315.23C97.15 314.13 95.34 312.98 93.58 311.79C80.91 303.27 70.57 292.64 62.76 280.01C41.3 245.33 46.82 207.72 48.63 195.36C51.06 178.78 56.59 161.04 64.63 144.06C65.47 142.27 64.98 140.14 63.44 138.91L61.69 137.5C34.7 115.61 32.06 78.41 32.18 63.43C32.31 47.47 35.34 34.09 37.2 27.36C55.31 36.77 72.11 48.11 87.17 61.12C96.83 69.43 102.77 75.78 105.33 80.53C105.93 81.66 107.01 82.45 108.26 82.69C109.51 82.93 110.81 82.6 111.79 81.79C135.45 62.23 162.11 52.31 191.05 52.31H191.08C219.99 52.31 246.59 62.25 270.13 81.85C271.11 82.67 272.42 83.01 273.67 82.76C274.93 82.52 276.01 81.72 276.61 80.59C279.16 75.83 285.1 69.46 294.8 61.11C309.88 48.12 326.68 36.79 344.79 27.37C346.65 34.1 349.68 47.49 349.81 63.44C349.93 78.41 347.3 115.61 320.3 137.51L318.38 139.06C316.84 140.29 316.35 142.43 317.2 144.21C325.27 161.18 330.94 178.88 333.58 195.41C335.85 209.62 341.89 247.36 320.01 282.21C312.79 293.72 303.4 303.49 292 311.44Z" fill="black"/>
<path d="M192.35 282.08C226.641 282.08 254.44 261.745 254.44 236.66C254.44 211.575 226.641 191.24 192.35 191.24C158.059 191.24 130.26 211.575 130.26 236.66C130.26 261.745 158.059 282.08 192.35 282.08Z" fill="#E69293"/>
<path d="M192.35 188.04C156.35 188.04 127.06 209.85 127.06 236.66C127.06 263.47 156.35 285.28 192.35 285.28C228.35 285.28 257.64 263.47 257.64 236.66C257.64 209.85 228.35 188.04 192.35 188.04ZM192.35 278.89C159.87 278.89 133.45 259.95 133.45 236.66C133.45 213.37 159.87 194.43 192.35 194.43C224.82 194.43 251.25 213.37 251.25 236.66C251.25 259.95 224.83 278.89 192.35 278.89Z" fill="black"/>
<path d="M163.04 250C167.64 250 171.37 244.027 171.37 236.66C171.37 229.293 167.64 223.32 163.04 223.32C158.439 223.32 154.71 229.293 154.71 236.66C154.71 244.027 158.439 250 163.04 250Z" fill="#BA5E60"/>
<path d="M221.38 250C225.981 250 229.71 244.027 229.71 236.66C229.71 229.293 225.981 223.32 221.38 223.32C216.78 223.32 213.05 229.293 213.05 236.66C213.05 244.027 216.78 250 221.38 250Z" fill="#BA5E60"/>
<path d="M245.63 189.13C258.277 189.13 268.53 178.949 268.53 166.39C268.53 153.831 258.277 143.65 245.63 143.65C232.983 143.65 222.73 153.831 222.73 166.39C222.73 178.949 232.983 189.13 245.63 189.13Z" fill="#1C1505"/>
<path d="M255.8 162.13C259.357 162.13 262.24 159.265 262.24 155.73C262.24 152.195 259.357 149.33 255.8 149.33C252.243 149.33 249.36 152.195 249.36 155.73C249.36 159.265 252.243 162.13 255.8 162.13Z" fill="white"/>
<path d="M242.42 171.83C244.27 171.83 245.77 170.339 245.77 168.5C245.77 166.661 244.27 165.17 242.42 165.17C240.57 165.17 239.07 166.661 239.07 168.5C239.07 170.339 240.57 171.83 242.42 171.83Z" fill="white"/>
<path d="M136.94 191.24C149.587 191.24 159.84 181.059 159.84 168.5C159.84 155.941 149.587 145.76 136.94 145.76C124.293 145.76 114.04 155.941 114.04 168.5C114.04 181.059 124.293 191.24 136.94 191.24Z" fill="#1C1505"/>
<path d="M147.12 164.24C150.677 164.24 153.56 161.375 153.56 157.84C153.56 154.305 150.677 151.44 147.12 151.44C143.563 151.44 140.68 154.305 140.68 157.84C140.68 161.375 143.563 164.24 147.12 164.24Z" fill="white"/>
<path d="M133.73 173.93C135.58 173.93 137.08 172.439 137.08 170.6C137.08 168.761 135.58 167.27 133.73 167.27C131.88 167.27 130.38 168.761 130.38 170.6C130.38 172.439 131.88 173.93 133.73 173.93Z" fill="white"/>
<path d="M191.01 312.43C174.99 312.43 163.76 304.37 159.62 300.85C157.83 299.33 157.61 296.64 159.14 294.85C160.66 293.06 163.35 292.84 165.15 294.37C168.62 297.32 178.18 304.13 191.76 303.91C204.59 303.67 213.59 297.16 216.86 294.37C218.65 292.84 221.34 293.06 222.87 294.85C224.39 296.64 224.18 299.33 222.39 300.86C217.46 305.06 206.94 312.15 191.93 312.43C191.61 312.43 191.31 312.43 191.01 312.43Z" fill="black"/>
<path d="M114.77 131.17C116.22 128.24 118.48 126.05 121.08 124.27C123.7 122.53 126.78 121.34 130.14 120.92C133.5 120.55 137.19 121.16 140.22 122.95C140.97 123.42 141.68 123.93 142.36 124.45C142.97 125.07 143.54 125.71 144.07 126.37C144.33 126.7 144.6 127.02 144.81 127.38C145 127.76 145.19 128.13 145.36 128.52C145.69 129.29 146 130.05 146.19 130.86C146.31 131.39 145.98 131.91 145.46 132.03C145.31 132.07 145.15 132.06 145.01 132.03L144.89 132C141.74 131.23 139.56 130.34 137.3 130.13C135.11 129.85 133.11 129.69 130.85 129.73C128.6 129.83 126.21 130.13 123.62 130.51C121.03 130.88 118.29 131.34 115.17 131.69H115.14C114.94 131.71 114.76 131.57 114.73 131.37C114.73 131.3 114.74 131.23 114.77 131.17Z" fill="black"/>
<path d="M229.95 130.72C231.52 127.82 233.82 125.69 236.48 124C239.15 122.32 242.27 121.21 245.64 120.88C249.01 120.57 252.68 121.3 255.63 123.18C256.35 123.69 257.04 124.21 257.68 124.76C258.27 125.4 258.8 126.07 259.29 126.75C260.29 128.08 260.81 129.76 261.11 131.37C261.12 131.43 261.08 131.49 261.02 131.5C261.01 131.5 260.99 131.5 260.98 131.5H260.97C257.57 130.82 255.25 130 252.9 129.91C250.63 129.72 248.61 129.67 246.36 129.78C241.86 130.12 236.99 131.34 231.01 132.15L230.92 132.16C230.39 132.23 229.9 131.86 229.83 131.32C229.81 131.1 229.86 130.9 229.95 130.72Z" fill="black"/>
</g>
<defs>
<clipPath id="clip0_2_539">
<rect width="379" height="509" fill="white"/>
</clipPath>
</defs>
</svg>
